<?xml version="1.0" encoding="UTF-8"?>
<svg width="140px" height="140px" viewBox="0 0 140 140" version="1.1" xmlns="http://www.w3.org/2000/svg" xmlns:xlink="http://www.w3.org/1999/xlink">
    <!-- Generator: Sketch 50.2 (55047) - http://www.bohemiancoding.com/sketch -->
    <title>Icons/Goods/icon 6</title>
    <desc>Created with Sketch.</desc>
    <defs></defs>
    <g id="Icons/Goods/icon-6" stroke="none" stroke-width="1" fill="none" fill-rule="evenodd">
        <g id="online-shop" transform="translate(26.000000, 24.000000)" fill="#D2252B" fill-rule="nonzero">
            <path d="M59.7788227,57.1381333 C60.5523936,57.1502083 61.2866433,57.4802583 61.8089427,58.0504667 L77.1353508,74.6411333 L79.3879707,72.5588667 L69.014871,61.3333333 L69.0516986,61.3333333 L69.0516986,19.9333333 C69.0467116,15.7013333 65.6144585,12.27165 61.3792877,12.2666667 L55.2413589,12.2666667 L55.2413589,15.3333333 L61.3792877,15.3333333 C63.9217328,15.3333333 65.9827342,17.3927917 65.9827342,19.9333333 L65.9827342,21.4666667 L55.2413589,21.4666667 L55.2413589,24.5333333 L65.9827342,24.5333333 L65.9827342,58.0504667 L64.0615625,55.9666667 C62.975341,54.784275 61.4508329,54.0996417 59.8448055,54.073 C59.4370168,54.0553667 59.0286528,54.0814333 58.6264266,54.1512 L59.8064434,49.4377333 L61.0432361,44.4666667 L62.9137699,44.4666667 L62.9137699,41.4 L59.8448055,41.4 C59.1404781,41.4001917 58.5268771,41.8793583 58.3563577,42.5622667 L57.1134272,47.5333333 L33.7586082,47.5333333 C32.9111904,47.533525 32.2243178,48.2202667 32.2245096,49.06705 C32.2245096,49.1920167 32.2398545,49.3164083 32.2701605,49.4377333 L35.3391249,61.7044 C35.5096442,62.3873083 36.1232453,62.866475 36.8275726,62.8666667 L54.5753936,62.8666667 C54.7794798,63.2362 55.022887,63.5827333 55.3012037,63.9001333 L56.5042377,65.2525333 C56.221893,65.6742 55.7490807,65.9291167 55.2413589,65.9333333 L35.2930904,65.9333333 L35.2930904,69 L55.2413589,69 C56.497908,68.9944417 57.6974895,68.4759833 58.5619784,67.5648 L64.2656487,73.9772 C63.1840305,77.9454667 63.7145777,82.1799583 65.7418205,85.7593333 C65.1293703,87.650125 63.3681684,88.9316083 61.3792877,88.9333333 L30.6896438,88.9333333 C28.1471986,88.9333333 26.0861973,86.873875 26.0861973,84.3333333 L26.0861973,82.8 L61.3792877,82.8 L61.3792877,79.7333333 L26.0861973,79.7333333 L26.0861973,36.8 L23.0172329,36.8 L23.0172329,84.3333333 C23.0222199,88.5653333 26.454473,91.9950167 30.6896438,92 L61.3792877,92 C63.9345841,92 66.3220466,90.7290583 67.7473888,88.6098 C68.2564532,89.1731083 68.8044552,89.6998083 69.3877502,90.1860667 L71.1385944,91.6458 L73.1027316,89.2875333 L71.3534219,87.8293333 C67.3238717,84.5012333 65.7667559,79.0339417 67.4389578,74.0845333 C67.6127379,73.564925 67.4957337,72.9920333 67.1320614,72.5818667 L57.5983235,61.8638667 C56.6007183,60.73955 56.6503972,59.0337167 57.7118752,57.9692 C58.2688923,57.4379 59.0087045,57.1404333 59.7788227,57.1381333 Z M36.491521,53.6666667 L35.7242799,50.6 L40.0760714,50.6 L40.4596919,53.6666667 L36.491521,53.6666667 Z M38.0260032,59.8 L37.2587621,56.7333333 L40.8433125,56.7333333 L41.226933,59.8 L38.0260032,59.8 Z M47.7484824,59.8 L44.3204491,59.8 L43.9368286,56.7333333 L48.1321029,56.7333333 L47.7484824,59.8 Z M48.5157234,53.6666667 L43.553208,53.6666667 L43.1695875,50.6 L48.899344,50.6 L48.5157234,53.6666667 Z M53.8112215,59.8 L50.8419985,59.8 L51.225619,56.7333333 L54.7810142,56.7333333 C54.179689,57.64605 53.844021,58.7076917 53.8112215,59.8 Z M55.5774105,53.6666667 L51.6092395,53.6666667 L51.9928601,50.6 L56.3446516,50.6 L55.5774105,53.6666667 Z M38.3620548,76.6666667 C36.6671126,76.6666667 35.2930904,75.2936732 35.2930904,73.6 C35.2930904,71.9063268 36.6671126,70.5333333 38.3620548,70.5333333 C40.056997,70.5333333 41.4310192,71.9063268 41.4310192,73.6 C41.4310192,75.2936732 40.056997,76.6666667 38.3620548,76.6666667 Z M53.7068767,76.6666667 C52.0119345,76.6666667 50.6379123,75.2936732 50.6379123,73.6 C50.6379123,71.9063268 52.0119345,70.5333333 53.7068767,70.5333333 C55.4018189,70.5333333 56.7758411,71.9063268 56.7758411,73.6 C56.7758411,75.2936732 55.4018189,76.6666667 53.7068767,76.6666667 Z M46.0344657,0 C49.4243287,0 52.1723945,2.74600833 52.1723945,6.13333333 L52.1723945,27.6 C52.1723945,30.987325 49.4243287,33.7333333 46.0344657,33.7333333 L6.13792877,33.7333333 C2.74806579,33.7333333 0,30.987325 0,27.6 L0,6.13333333 C0,2.74600833 2.74806579,0 6.13792877,0 L46.0344657,0 Z M49.1034301,27.6 L49.1034301,6.13333333 C49.1034301,4.439575 47.7294931,3.06666667 46.0344657,3.06666667 L6.13792877,3.06666667 C4.44290138,3.06666667 3.06896438,4.439575 3.06896438,6.13333333 L3.06896438,27.6 C3.06896438,29.2937583 4.44290138,30.6666667 6.13792877,30.6666667 L46.0344657,30.6666667 C47.7294931,30.6666667 49.1034301,29.2937583 49.1034301,27.6 Z M6.13792877,7.66666667 L33.7586082,7.66666667 L33.7586082,10.7333333 L6.13792877,10.7333333 L6.13792877,7.66666667 Z M43.7841476,17.503 C45.97558,18.7908083 46.707528,21.6100333 45.4187548,23.8000167 C44.1299815,25.99 41.3086442,26.7212083 39.11702,25.4334 C38.4236259,25.8437583 37.6333676,26.0622583 36.8275726,26.0666667 C34.2851274,26.0666667 32.224126,24.0072083 32.224126,21.4666667 C32.224126,18.926125 34.2851274,16.8666667 36.8275726,16.8666667 C37.6337512,16.8720333 38.4238177,17.0916833 39.11702,17.503 C40.5575152,16.6566 42.3438443,16.6566 43.7841476,17.503 Z M36.8275726,23 C37.6749904,23 38.3620548,22.31345 38.3620548,21.4666667 C38.3620548,20.6198833 37.6749904,19.9333333 36.8275726,19.9333333 C35.9801548,19.9333333 35.2930904,20.6198833 35.2930904,21.4666667 C35.2930904,22.31345 35.9801548,23 36.8275726,23 Z M41.4310192,23 C42.278437,23 42.9655014,22.31345 42.9655014,21.4666667 C42.9655014,20.6198833 42.278437,19.9333333 41.4310192,19.9333333 C41.3395257,19.9387 41.2486076,19.9521167 41.1594158,19.9732 C41.5205946,20.9367083 41.5205946,21.9981583 41.1594158,22.9616667 C41.2486076,22.98275 41.3395257,22.9955917 41.4310192,23 Z M6.13792877,16.8666667 L9.20689315,16.8666667 L9.20689315,19.9333333 L6.13792877,19.9333333 L6.13792877,16.8666667 Z M12.2758575,16.8666667 L15.3448219,16.8666667 L15.3448219,19.9333333 L12.2758575,19.9333333 L12.2758575,16.8666667 Z M18.4137863,16.8666667 L21.4827507,16.8666667 L21.4827507,19.9333333 L18.4137863,19.9333333 L18.4137863,16.8666667 Z M24.5517151,16.8666667 L27.6206794,16.8666667 L27.6206794,19.9333333 L24.5517151,19.9333333 L24.5517151,16.8666667 Z M6.13792877,23 L27.6206794,23 L27.6206794,26.0666667 L6.13792877,26.0666667 L6.13792877,23 Z M86.1427613,59.1866667 C87.9854826,61.167925 89.0066805,63.7744 88.9999671,66.4792 L89,92 L85.9310027,92 L85.9310027,66.4792 C85.9333044,64.54145 85.1988629,62.6753833 83.8763311,61.2582 L70.9790083,47.0242667 L73.2531109,44.9665333 L86.1427613,59.1866667 Z M49.7862747,38.5909333 L51.4895499,41.1424 L46.8861034,44.2090667 C46.3705173,44.5529167 45.6984141,44.5529167 45.1828281,44.2090667 L40.5793816,41.1424 L42.2826568,38.5909333 L44.4999836,40.0675333 L44.4999836,36.8 L47.5689479,36.8 L47.5689479,40.0675333 L49.7862747,38.5909333 Z" id="Combined-Shape"></path>
        </g>
    </g>
</svg>