<?xml version="1.0" encoding="UTF-8"?>
<svg width="140px" height="140px" viewBox="0 0 140 140" version="1.1" xmlns="http://www.w3.org/2000/svg" xmlns:xlink="http://www.w3.org/1999/xlink">
    <!-- Generator: Sketch 50.2 (55047) - http://www.bohemiancoding.com/sketch -->
    <title>Icons/Goods/icon 1</title>
    <desc>Created with Sketch.</desc>
    <defs></defs>
    <g id="Icons/Goods/icon-1" stroke="none" stroke-width="1" fill="none" fill-rule="evenodd">
        <g id="identity" transform="translate(24.000000, 24.000000)" fill="#D2252B" fill-rule="nonzero">
            <path d="M38.3333333,0 C39.1801167,0 39.8666667,0.68655 39.8666667,1.53333333 L39.8666667,6.13333333 L36.8,6.13333333 L36.8,3.06666667 L3.06666667,3.06666667 L3.06666667,55.2 L15.3333333,55.2 L15.3333333,58.2666667 L1.53333333,58.2666667 C0.68655,58.2666667 0,57.5801167 0,56.7333333 L0,1.53333333 C0,0.68655 0.68655,0 1.53333333,0 L38.3333333,0 Z M14.4854,7.82766667 C15.0052,8.087375 15.333525,8.61886667 15.3333333,9.2 L15.3333333,12.2666667 C15.333525,12.8478 15.0052,13.3792917 14.4854,13.639 L11.4187333,15.1723333 C10.9872917,15.3879583 10.479375,15.3879583 10.0479333,15.1723333 L6.98126667,13.639 C6.46146667,13.3792917 6.13314167,12.8478 6.13333333,12.2666667 L6.13333333,9.2 C6.13314167,8.61886667 6.46146667,8.087375 6.98126667,7.82766667 L10.0479333,6.29433333 C10.479375,6.07870833 10.9872917,6.07870833 11.4187333,6.29433333 L14.4854,7.82766667 Z M12.2666667,11.3190667 L12.2666667,10.1476 L10.7333333,9.38093333 L9.2,10.1476 L9.2,11.3190667 L10.7333333,12.0857333 L12.2666667,11.3190667 Z M59.8,9.2 C60.6467833,9.2 61.3333333,9.88655 61.3333333,10.7333333 L61.3333333,65.9333333 C61.3333333,66.7801167 60.6467833,67.4666667 59.8,67.4666667 L19.9333333,67.4666667 C19.08655,67.4666667 18.4,66.7801167 18.4,65.9333333 L18.4,10.7333333 C18.4,9.88655 19.08655,9.2 19.9333333,9.2 L59.8,9.2 Z M58.2666667,64.4 L58.2666667,12.2666667 L21.4666667,12.2666667 L21.4666667,64.4 L58.2666667,64.4 Z M49.0038,30.2480667 C49.04405,30.3839583 49.0651333,30.5248333 49.0666667,30.6666667 L49.0666667,38.3333333 C49.06705,38.9604667 48.685825,39.5245417 48.1037333,39.7578 L40.4370667,42.8244667 C40.4186667,42.8352 40.3987333,42.8352 40.3803333,42.8352 C40.0502833,42.9659167 39.6828583,42.9659167 39.353,42.8352 C39.3346,42.8244667 39.3146667,42.8244667 39.2962667,42.8244667 L31.6296,39.7578 C31.0475083,39.5245417 30.6660917,38.9604667 30.6666667,38.3333333 L30.6666667,30.6666667 C30.6682,30.5248333 30.6892833,30.3839583 30.7295333,30.2480667 C30.7418,30.2066667 30.7617333,30.1668 30.7770667,30.1269333 C30.8100333,30.03685 30.851625,29.950025 30.9012667,29.8678 C30.9273333,29.8264 30.9549333,29.7865333 30.9856,29.7466667 C31.0411833,29.6746 31.1027083,29.6075167 31.1696,29.5458 C31.2079333,29.5120667 31.2616,29.4614667 31.2830667,29.4461333 C31.3045333,29.4308 31.3198667,29.4108667 31.3398,29.3970667 C31.4063083,29.3570083 31.4753083,29.32155 31.5468,29.2912667 C31.5759333,29.2774667 31.5989333,29.2544667 31.6296,29.2422 L39.2962667,26.1755333 C39.662925,26.0314 40.0704083,26.0314 40.4370667,26.1755333 L48.1037333,29.2422 C48.1328667,29.2544667 48.1543333,29.2759333 48.1834667,29.2897333 C48.2559167,29.3205917 48.3260667,29.3564333 48.3935333,29.3970667 C48.4134667,29.4108667 48.4104,29.4154667 48.4502667,29.4461333 C48.4901333,29.4768 48.5254,29.5120667 48.5637333,29.5458 C48.630625,29.6075167 48.69215,29.6746 48.7477333,29.7466667 C48.7784,29.7865333 48.806,29.8264 48.8320667,29.8678 C48.8817083,29.950025 48.9233,30.0366583 48.9562667,30.1269333 C48.9716,30.1668 48.9915333,30.2066667 49.0038,30.2480667 Z M38.3333333,39.1352667 L38.3333333,34.7714 L33.7333333,32.9314 L33.7333333,37.2952667 L38.3333333,39.1352667 Z M39.8666667,32.0819333 L43.4040667,30.6666667 L39.8666667,29.2514 L36.3292667,30.6666667 L39.8666667,32.0819333 Z M46,37.2952667 L46,32.9314 L41.4,34.7714 L41.4,39.1352667 L46,37.2952667 Z M90.4666667,9.2 C91.31345,9.2 92,9.88655 92,10.7333333 L92,26.0666667 C92,26.91345 91.31345,27.6 90.4666667,27.6 L65.9333333,27.6 C65.08655,27.6 64.4,26.91345 64.4,26.0666667 L64.4,10.7333333 C64.4,9.88655 65.08655,9.2 65.9333333,9.2 L90.4666667,9.2 Z M88.9333333,24.5333333 L88.9333333,12.2666667 L67.4666667,12.2666667 L67.4666667,24.5333333 L88.9333333,24.5333333 Z M70.5333333,15.3333333 L73.6,15.3333333 L73.6,18.4 L70.5333333,18.4 L70.5333333,15.3333333 Z M90.4666667,30.6666667 C91.31345,30.6666667 92,31.3532167 92,32.2 L92,47.5333333 C92,48.3801167 91.31345,49.0666667 90.4666667,49.0666667 L65.9333333,49.0666667 C65.08655,49.0666667 64.4,48.3801167 64.4,47.5333333 L64.4,32.2 C64.4,31.3532167 65.08655,30.6666667 65.9333333,30.6666667 L90.4666667,30.6666667 Z M88.9333333,46 L88.9333333,33.7333333 L67.4666667,33.7333333 L67.4666667,46 L88.9333333,46 Z M70.5333333,38.3333333 L73.6,38.3333333 L73.6,41.4 L70.5333333,41.4 L70.5333333,38.3333333 Z M76.6666667,38.3333333 L85.8666667,38.3333333 L85.8666667,41.4 L76.6666667,41.4 L76.6666667,38.3333333 Z M50.6,70.5333333 C51.4467833,70.5333333 52.1333333,71.2198833 52.1333333,72.0666667 L52.1333333,90.4666667 C52.1333333,91.31345 51.4467833,92 50.6,92 L16.8666667,92 C16.0198833,92 15.3333333,91.31345 15.3333333,90.4666667 L15.3333333,72.0666667 C15.3333333,71.2198833 16.0198833,70.5333333 16.8666667,70.5333333 L50.6,70.5333333 Z M49.0666667,88.9333333 L49.0666667,73.6 L18.4,73.6 L18.4,88.9333333 L49.0666667,88.9333333 Z M90.4666667,70.5333333 C91.31345,70.5333333 92,71.2198833 92,72.0666667 L92,90.4666667 C92,91.31345 91.31345,92 90.4666667,92 L56.7333333,92 C55.88655,92 55.2,91.31345 55.2,90.4666667 L55.2,72.0666667 C55.2,71.2198833 55.88655,70.5333333 56.7333333,70.5333333 L90.4666667,70.5333333 Z M88.9333333,88.9333333 L88.9333333,79.4512 C88.4422833,79.6329 87.9236333,79.7281583 87.4,79.7333333 L59.8,79.7333333 C59.2763667,79.7281583 58.7577167,79.6329 58.2666667,79.4512 L58.2666667,88.9333333 L88.9333333,88.9333333 Z M88.9333333,75.1333333 L88.9333333,73.6 L58.2666667,73.6 L58.2666667,75.1333333 C58.2666667,75.9801167 58.9532167,76.6666667 59.8,76.6666667 L87.4,76.6666667 C88.2467833,76.6666667 88.9333333,75.9801167 88.9333333,75.1333333 Z M29.8187333,78.361 C30.3385333,78.6207083 30.6668583,79.1522 30.6666667,79.7333333 L30.6666667,82.8 C30.669925,83.3840083 30.341025,83.91895 29.8187333,84.18 L26.7520667,85.7133333 C26.320625,85.9289583 25.8127083,85.9289583 25.3812667,85.7133333 L22.3146,84.18 C21.7923083,83.91895 21.4634083,83.3840083 21.4666667,82.8 L21.4666667,79.7333333 C21.466475,79.1522 21.7948,78.6207083 22.3146,78.361 L25.3812667,76.8276667 C25.8127083,76.6120417 26.320625,76.6120417 26.7520667,76.8276667 L29.8187333,78.361 Z M27.6,81.8524 L27.6,80.6809333 L26.0666667,79.9142667 L24.5333333,80.6809333 L24.5333333,81.8524 L26.0666667,82.6190667 L27.6,81.8524 Z M61.3333333,82.8 L64.4,82.8 L64.4,85.8666667 L61.3333333,85.8666667 L61.3333333,82.8 Z M67.4666667,82.8 L76.6666667,82.8 L76.6666667,85.8666667 L67.4666667,85.8666667 L67.4666667,82.8 Z" id="Combined-Shape"></path>
        </g>
    </g>
</svg>