<?xml version="1.0" encoding="UTF-8"?>
<svg width="140px" height="140px" viewBox="0 0 140 140" version="1.1" xmlns="http://www.w3.org/2000/svg" xmlns:xlink="http://www.w3.org/1999/xlink">
    <!-- Generator: Sketch 50.2 (55047) - http://www.bohemiancoding.com/sketch -->
    <title>Icons/Goods/icon 5</title>
    <desc>Created with Sketch.</desc>
    <defs></defs>
    <g id="Icons/Goods/icon-5" stroke="none" stroke-width="1" fill="none" fill-rule="evenodd">
        <g id="partnership" transform="translate(23.000000, 24.000000)" fill="#D2252B" fill-rule="nonzero">
            <path d="M84.3333333,49.0666667 L84.2934667,49.0666667 C85.30815,47.747425 85.8611083,46.1311 85.8666667,44.4666667 L85.8666667,41.4 C85.8666667,37.1658917 82.4341083,33.7333333 78.2,33.7333333 C73.9658917,33.7333333 70.5333333,37.1658917 70.5333333,41.4 L70.5333333,44.4666667 C70.539275,46.1355083 71.0949167,47.75605 72.1142,49.0774 C69.5751917,49.1345167 67.2286167,50.4432167 65.8459333,52.5734 L61.6660667,59.9242 L58.5074,53.0640667 C58.4801833,53.0048417 58.4489417,52.9473417 58.4138667,52.8923333 C57.0580167,50.65635 54.6861417,49.2334167 52.0750667,49.0896667 C53.1010583,47.7664 53.660725,46.1410667 53.6666667,44.4666667 L53.6666667,41.4 C53.6666667,37.1658917 50.2341083,33.7333333 46,33.7333333 C41.7658917,33.7333333 38.3333333,37.1658917 38.3333333,41.4 L38.3333333,44.4666667 C38.339275,46.1355083 38.8949167,47.75605 39.9142,49.0774 C37.4110333,49.1255083 35.0903333,50.3974083 33.7026667,52.4814 C33.6566667,52.5505917 33.6160333,52.623425 33.5815333,52.6991333 L30.3232,59.9058 L26.0973333,52.4814 C24.7096667,50.3974083 22.3889667,49.1255083 19.8858,49.0774 C20.9050833,47.75605 21.460725,46.1355083 21.4666667,44.4666667 L21.4666667,41.4 C21.4666667,37.1658917 18.0341083,33.7333333 13.8,33.7333333 C9.56589167,33.7333333 6.13333333,37.1658917 6.13333333,41.4 L6.13333333,44.4666667 C6.13889167,46.1311 6.69185,47.747425 7.70653333,49.0666667 L7.66666667,49.0666667 C3.43466667,49.07165 0.00498333333,52.5013333 0,56.7333333 L0,69 C0,69.8467833 0.68655,70.5333333 1.53333333,70.5333333 L6.13333333,70.5333333 L6.13333333,90.4666667 C6.13333333,91.31345 6.81988333,92 7.66666667,92 L19.9333333,92 C20.7801167,92 21.4666667,91.31345 21.4666667,90.4666667 L21.4666667,62.0785333 L26.2997333,69.8126667 C26.57995,70.260975 27.0713833,70.5333333 27.6,70.5333333 L33.7333333,70.5333333 C34.2799667,70.5321833 34.7848167,70.2400833 35.0581333,69.7666667 C35.0673333,69.7513333 35.0704,69.7329333 35.0796,69.7160667 C35.0888,69.6992 35.098,69.6946 35.1056667,69.6808 L38.3333333,63.2285333 L38.3333333,90.4666667 C38.3333333,91.31345 39.0198833,92 39.8666667,92 L52.1333333,92 C52.9801167,92 53.6666667,91.31345 53.6666667,90.4666667 L53.6666667,63.2285333 L56.8866667,69.6854 C56.8943333,69.7007333 56.9066,69.7114667 56.9142667,69.7252667 C56.9219333,69.7390667 56.925,69.7559333 56.9342,69.7712667 C56.9687,69.8247417 57.0064583,69.8761083 57.0476667,69.9246 C57.0817833,69.9742417 57.1185833,70.021775 57.1580667,70.0672 C57.2151833,70.1231667 57.2767083,70.1745333 57.3420667,70.2205333 C57.4484417,70.3177083 57.5759,70.388625 57.7146667,70.4275333 C57.7579833,70.4486167 57.8026417,70.4670167 57.8480667,70.4827333 C57.9845333,70.5187667 58.1254083,70.535825 58.2666667,70.5333333 L64.4,70.5333333 C64.9286167,70.5333333 65.42005,70.260975 65.7002667,69.8126667 L70.5333333,62.0785333 L70.5333333,90.4666667 C70.5333333,91.31345 71.2198833,92 72.0666667,92 L84.3333333,92 C85.1801167,92 85.8666667,91.31345 85.8666667,90.4666667 L85.8666667,70.5333333 L90.4666667,70.5333333 C91.31345,70.5333333 92,69.8467833 92,69 L92,56.7333333 C91.9950167,52.5013333 88.5653333,49.07165 84.3333333,49.0666667 Z M73.6,41.4 C73.6,38.8594583 75.6594583,36.8 78.2,36.8 C80.7405417,36.8 82.8,38.8594583 82.8,41.4 L82.8,44.4666667 C82.8,47.0072083 80.7405417,49.0666667 78.2,49.0666667 C75.6594583,49.0666667 73.6,47.0072083 73.6,44.4666667 L73.6,41.4 Z M41.4,41.4 C41.4,38.8594583 43.4594583,36.8 46,36.8 C48.5405417,36.8 50.6,38.8594583 50.6,41.4 L50.6,44.4666667 C50.6,47.0072083 48.5405417,49.0666667 46,49.0666667 C43.4594583,49.0666667 41.4,47.0072083 41.4,44.4666667 L41.4,41.4 Z M9.2,41.4 C9.2,38.8594583 11.2594583,36.8 13.8,36.8 C16.3405417,36.8 18.4,38.8594583 18.4,41.4 L18.4,44.4666667 C18.4,47.0072083 16.3405417,49.0666667 13.8,49.0666667 C11.2594583,49.0666667 9.2,47.0072083 9.2,44.4666667 L9.2,41.4 Z M18.4,88.9333333 L15.3333333,88.9333333 L15.3333333,73.6 L12.2666667,73.6 L12.2666667,88.9333333 L9.2,88.9333333 L9.2,70.5333333 L18.4,70.5333333 L18.4,88.9333333 Z M28.4494667,67.4666667 L21.2336,55.9206667 C20.7847167,55.2024917 19.8388417,54.9841833 19.1206667,55.4330667 C18.6723583,55.7132833 18.4,56.2047167 18.4,56.7333333 L18.4,67.4666667 L9.2,67.4666667 L9.2,56.7333333 L6.13333333,56.7333333 L6.13333333,67.4666667 L3.06666667,67.4666667 L3.06666667,56.7333333 C3.06666667,54.1927917 5.126125,52.1333333 7.66666667,52.1333333 L12.2666667,52.1333333 L12.2666667,64.4 L15.3333333,64.4 L15.3333333,52.1333333 L19.527,52.1333333 C19.6144,52.1333333 19.7033333,52.1333333 19.7907333,52.141 L19.8367333,52.141 C19.9032417,52.141 19.9676417,52.141 20.0299333,52.141 C21.4195167,52.22495 22.6939083,52.9415917 23.4876,54.0852667 L31.0975333,67.4666667 L28.4494667,67.4666667 Z M50.6,88.9333333 L47.5333333,88.9333333 L47.5333333,73.6 L44.4666667,73.6 L44.4666667,88.9333333 L41.4,88.9333333 L41.4,70.5333333 L50.6,70.5333333 L50.6,88.9333333 Z M58.2666667,65.5714667 L53.5133333,56.0479333 C53.144375,55.285675 52.22725,54.9669333 51.4649917,55.3360833 C50.9302417,55.595025 50.5932917,56.1393583 50.6,56.7333333 L50.6,67.4666667 L41.4,67.4666667 L41.4,56.7333333 C41.4007667,55.88655 40.7149833,55.199425 39.8682,55.1984667 C39.2861083,55.1978917 38.7540417,55.5269833 38.494525,56.0479333 L33.7333333,65.5714667 L32.3640667,62.8344667 L36.3200667,54.0852667 C37.1819917,52.8610917 38.5857583,52.13295 40.0828667,52.1333333 L44.4666667,52.1333333 L44.4666667,64.4 L47.5333333,64.4 L47.5333333,52.1333333 L51.727,52.1333333 C53.3814667,52.153075 54.9086667,53.0257333 55.7658,54.441 L59.6328667,62.8390667 L58.2666667,65.5714667 Z M82.8,88.9333333 L79.7333333,88.9333333 L79.7333333,73.6 L76.6666667,73.6 L76.6666667,88.9333333 L73.6,88.9333333 L73.6,70.5333333 L82.8,70.5333333 L82.8,88.9333333 Z M88.9333333,67.4666667 L85.8666667,67.4666667 L85.8666667,56.7333333 L82.8,56.7333333 L82.8,67.4666667 L73.6,67.4666667 L73.6,56.7333333 C73.6,55.88655 72.91345,55.2 72.0666667,55.2 C71.53805,55.2 71.0466167,55.4723583 70.7664,55.9206667 L63.5505333,67.4666667 L60.9024667,67.4666667 L68.4556667,54.1818667 C69.2459083,52.992575 70.5452167,52.2391333 71.9700667,52.1440667 C72.0329333,52.1440667 72.0973333,52.1440667 72.1617333,52.1440667 L72.2092667,52.1440667 C72.2966667,52.1440667 72.3856,52.1364 72.473,52.1364 L76.6666667,52.1364 L76.6666667,64.4030667 L79.7333333,64.4030667 L79.7333333,52.1333333 L84.3333333,52.1333333 C86.873875,52.1333333 88.9333333,54.1927917 88.9333333,56.7333333 L88.9333333,67.4666667 Z M46,0 C71.39315,0.02875 91.97125,20.60685 92,46 L92,47.5333333 L88.9333333,47.5333333 L88.9333333,46 C88.941575,39.6345583 87.525925,33.3477 84.7902667,27.6 L70.8216,27.6 C71.3046,29.5473333 71.7416,31.5054 72.0482667,33.4987333 L69.0184,33.9679333 C68.67455,31.8226083 68.2176167,29.697025 67.6491333,27.6 L47.5333333,27.6 L47.5333333,30.6666667 L44.4666667,30.6666667 L44.4666667,27.6 L24.4244667,27.6 C23.8586667,29.6976 23.4040333,31.8237583 23.0628667,33.9694667 L20.033,33.4972 C20.3396667,31.5084667 20.7674667,29.5458 21.2596667,27.6 L7.2174,27.6 C4.47905833,33.347125 3.06091667,39.6337917 3.06666667,46 L3.06666667,47.5333333 L0,47.5333333 L0,46 C0.02875,20.60685 20.60685,0.02875 46,0 Z M31.4333333,5.61353333 C27.9321583,6.883325 24.6115333,8.6043 21.5556,10.7333333 L28.1228667,10.7333333 C29.1440667,8.97613333 30.2542,7.2726 31.4333333,5.61353333 Z M22.103,24.5333333 C23.2255917,20.8349333 24.6730583,17.2432917 26.4285333,13.8 L17.6471333,13.8 C14.15305,16.8798917 11.1799167,20.5045 8.84273333,24.5333333 L22.103,24.5333333 Z M44.4666667,24.5333333 L44.4666667,13.8 L29.9276,13.8 C28.0624917,17.226425 26.52245,20.8197917 25.3276,24.5333333 L44.4666667,24.5333333 Z M44.4728,10.7333333 L44.4728,3.1004 C41.7358,3.19719167 39.0145167,3.55656667 36.3461333,4.17373333 L35.6224,5.09373333 C34.2148,6.90019167 32.9080167,8.78293333 31.7078,10.7333333 L44.4728,10.7333333 Z M70.4444,10.7333333 C67.4154917,8.62385 64.126875,6.914375 60.6602,5.64726667 C61.8387583,7.29310833 62.9356667,8.9884 63.9507333,10.7333333 L70.4444,10.7333333 Z M47.5333333,3.105 L47.5333333,10.7333333 L60.3658,10.7333333 C59.1655833,8.78255 57.858225,6.89980833 56.4496667,5.09373333 L55.7428,4.1952 C53.0479667,3.5673 50.2987,3.20236667 47.5333333,3.105 Z M47.5333333,24.5333333 L66.7444667,24.5333333 C65.5501917,20.8196 64.01015,17.2260417 62.1444667,13.8 L47.5333333,13.8 L47.5333333,24.5333333 Z M69.9706,24.5333333 L83.1572667,24.5333333 C80.8200833,20.5045 77.84695,16.8798917 74.3528667,13.8 L65.6450667,13.8 C67.3999667,17.2434833 68.8474333,20.8353167 69.9706,24.5333333 Z M24.5333333,41.4 L27.6,41.4 L27.6,44.4666667 L24.5333333,44.4666667 L24.5333333,41.4 Z M30.6666667,41.4 L33.7333333,41.4 L33.7333333,44.4666667 L30.6666667,44.4666667 L30.6666667,41.4 Z M58.2666667,41.4 L61.3333333,41.4 L61.3333333,44.4666667 L58.2666667,44.4666667 L58.2666667,41.4 Z M64.4,41.4 L67.4666667,41.4 L67.4666667,44.4666667 L64.4,44.4666667 L64.4,41.4 Z" id="Combined-Shape"></path>
        </g>
    </g>
</svg>