<?xml version="1.0" encoding="UTF-8"?>
<svg width="140px" height="140px" viewBox="0 0 140 140" version="1.1" xmlns="http://www.w3.org/2000/svg" xmlns:xlink="http://www.w3.org/1999/xlink">
    <!-- Generator: Sketch 50.2 (55047) - http://www.bohemiancoding.com/sketch -->
    <title>Icons/Goods/icon 2</title>
    <desc>Created with Sketch.</desc>
    <defs></defs>
    <g id="Icons/Goods/icon-2" stroke="none" stroke-width="1" fill="none" fill-rule="evenodd">
        <g id="document-settings" transform="translate(30.000000, 21.000000)" fill="#D2252B" fill-rule="nonzero">
            <path d="M35.3985546,85.9181445 C36.1975781,85.9181445 36.845362,86.562147 36.845362,87.3565063 C36.845362,88.1508656 36.1975781,88.7948681 35.3985546,88.7948681 L7.61985236,88.7948681 C3.41832364,88.7948681 0,85.3964986 0,81.219496 L0,7.57537211 C0,3.39836947 3.41832364,0 7.61985236,0 L50.831167,0 C50.8795868,0 50.9278137,0.00249316044 50.9756548,0.00728769976 C51.010764,0.0107397681 51.0449087,0.0166849968 51.0792462,0.0226302256 C51.0913994,0.0247398229 51.1039384,0.0256987307 51.1160916,0.0281918912 C51.1566022,0.0362467172 51.1963412,0.0467947037 51.2355014,0.0581098165 C51.2412887,0.0596440691 51.2472688,0.0607947585 51.253056,0.0625207926 C51.2929879,0.0746030317 51.3319553,0.0889866497 51.3703439,0.104329175 C51.3753595,0.106438773 51.3807609,0.107973025 51.3859694,0.110082623 C51.422236,0.125041585 51.4575381,0.142301927 51.4924544,0.160137613 C51.499592,0.163781463 51.5071154,0.166658187 51.5140601,0.170493818 C51.5462757,0.18775416 51.5771409,0.206932317 51.6078132,0.226302256 C51.6170728,0.232055703 51.6267181,0.237042024 51.6357848,0.243179034 C51.6649139,0.262548973 51.6926926,0.283836727 51.7202784,0.305316263 C51.7297308,0.312795745 51.7399549,0.319316318 51.7494074,0.326987581 C51.7860599,0.356713725 51.8211691,0.388357684 51.8545421,0.421535896 L67.2867686,15.7634864 C67.3201417,15.7966646 67.3517785,15.8317606 67.3818721,15.8680073 C67.3895884,15.8774046 67.3961473,15.8873773 67.4036707,15.8969663 C67.4250834,15.9243911 67.4466891,15.9520076 67.4661728,15.9809667 C67.4721529,15.9899804 67.4773614,15.9995695 67.4831486,16.008775 C67.5028252,16.0392683 67.522116,16.0699533 67.5392848,16.1019808 C67.5431429,16.1090767 67.5460365,16.1163644 67.5497018,16.1234604 C67.5676422,16.157981 67.5850039,16.1930771 67.6000507,16.2293238 C67.6021727,16.2343101 67.6037159,16.23968 67.6058379,16.2448581 C67.6212705,16.2830226 67.6357386,16.3217625 67.6478918,16.3614613 C67.6496279,16.3672147 67.6505925,16.37316 67.6523286,16.3789134 C67.6637102,16.4178451 67.6741272,16.4573521 67.6822293,16.4976262 C67.6845442,16.5097085 67.6857017,16.5221743 67.6878237,16.5342565 C67.6938038,16.5683936 67.6997839,16.602339 67.7032563,16.6372432 C67.708079,16.684805 67.7105868,16.7327504 67.7105868,16.7808876 L67.7105868,47.4659392 C67.7105868,48.2602985 67.0628028,48.904301 66.2637793,48.904301 C65.4647558,48.904301 64.8169719,48.2602985 64.8169719,47.4659392 L64.8169719,18.2192494 L57.0042119,18.2192494 C52.8026832,18.2192494 49.3843596,14.8208799 49.3843596,10.6438773 L49.3843596,2.87672359 L7.61985236,2.87672359 C5.01386285,2.87672359 2.89361482,4.98459485 2.89361482,7.57537211 L2.89361482,81.219496 C2.89361482,83.8102732 5.01386285,85.9181445 7.61985236,85.9181445 L35.3985546,85.9181445 Z M52.2779744,10.6438773 C52.2779744,13.2346545 54.3982224,15.3425258 57.0042119,15.3425258 L62.7709934,15.3425258 L52.2779744,4.91075895 L52.2779744,10.6438773 Z M80.5036437,79.8233261 C81.1952176,80.220314 81.6900258,80.8614398 81.8966299,81.6279907 C82.103234,82.3949252 81.9971347,83.1961886 81.5978159,83.8837256 L78.5112934,89.1985683 C77.6868061,90.6179437 75.8541834,91.105836 74.4268597,90.2867369 L73.5161426,89.7639404 C71.4038038,91.6710163 68.8969688,93.1063096 66.1671326,93.9716281 L66.1671326,95.0273856 C66.1671326,96.6665427 64.8258457,98 63.177064,98 L57.004019,98 C55.3552373,98 54.0139504,96.6665427 54.0139504,95.0273856 L54.0139504,93.9716281 C51.2839212,93.1063096 48.7770863,91.6710163 46.6649404,89.7639404 L45.7542233,90.2867369 C44.3263209,91.1064114 42.494084,90.6181355 41.6697896,89.1987601 L38.5832671,83.8839174 C38.1839482,83.1961886 38.077849,82.395117 38.2844531,81.6281825 C38.4912501,80.861248 38.9860583,80.2201222 39.6778251,79.8231343 L40.5939436,79.2972693 C40.2822048,77.8895925 40.1245992,76.4763541 40.1245992,75.0822939 C40.1245992,73.6882336 40.2822048,72.2749952 40.5939436,70.8673185 L39.6776322,70.3414534 C38.9858654,69.9442738 38.4912501,69.3033397 38.2844531,68.5364052 C38.0776561,67.7694707 38.1837553,66.9682073 38.5832671,66.2806704 L41.6697896,60.9660194 C42.0691084,60.2784825 42.7138058,59.7865628 43.4854364,59.5809729 C44.2564883,59.3753831 45.0626494,59.4808629 45.7542233,59.8778508 L46.6649404,60.4006474 C48.7772792,58.4935714 51.2841142,57.0582781 54.0139504,56.1929597 L54.0139504,55.1372021 C54.0139504,53.498045 55.3552373,52.1645877 57.004019,52.1645877 L63.177064,52.1645877 C64.8258457,52.1645877 66.1671326,53.498045 66.1671326,55.1372021 L66.1671326,56.1931514 C68.8971617,57.0584699 71.4039967,58.4937632 73.5161426,60.4008391 L74.4268597,59.8780426 C75.1188194,59.4810547 75.9244018,59.3757666 76.6958395,59.5809729 C77.4672772,59.7865628 78.1121675,60.2784825 78.5114863,60.9662112 L81.5980088,66.2808622 C81.9973277,66.9683991 82.1036198,67.7694707 81.8968228,68.536597 C81.6900258,69.3035315 81.1954105,69.9446573 80.5036437,70.3416452 L79.5873323,70.8675102 C79.8990711,72.275187 80.0566766,73.6884254 80.0566766,75.0824856 C80.0566766,76.4765459 79.8990711,77.8897843 79.5873323,79.297461 L80.5036437,79.8233261 Z M60.0907344,62.9043558 C66.845203,62.9043558 72.3403705,68.3674457 72.3403705,75.0824856 C72.3403705,81.7975256 66.845203,87.2606155 60.0907344,87.2606155 C53.3362658,87.2606155 47.8410983,81.7975256 47.8410983,75.0824856 C47.8410983,68.3674457 53.3362658,62.9043558 60.0907344,62.9043558 Z M60.0907344,84.3838919 C65.2496638,84.3838919 69.4467556,80.2113002 69.4467556,75.0824856 C69.4467556,69.9536711 65.2496638,65.7810794 60.0907344,65.7810794 C54.931805,65.7810794 50.7347132,69.9536711 50.7347132,75.0824856 C50.7347132,80.2113002 54.931805,84.3838919 60.0907344,84.3838919 Z M76.5266595,70.547235 C76.3505348,69.9155065 76.6265856,69.2452299 77.1977852,68.9172834 L79.0570292,67.8502108 C79.0655171,67.8452244 79.0915597,67.8302655 79.1019767,67.7919092 C79.1122008,67.7535529 79.097154,67.7276623 79.0923313,67.7192239 L76.0058088,62.4043812 C75.9789946,62.3585454 75.9201578,62.3424358 75.87386,62.3692852 L74.0217536,63.4323305 C73.4501682,63.7598934 72.7283078,63.6622766 72.266101,63.1945213 C70.1022559,61.0043758 67.3679828,59.4388628 64.359395,58.6675173 C63.7204848,58.5037358 63.2739036,57.9308843 63.2739036,57.2747995 L63.2739036,55.1372021 C63.2739036,55.0842704 63.2306923,55.0413113 63.1774498,55.0413113 L57.0044048,55.0413113 C56.9511623,55.0413113 56.907951,55.0842704 56.907951,55.1372021 L56.907951,57.2751831 C56.907951,57.9312678 56.4613698,58.5041194 55.8224596,58.6679009 C52.8138719,59.4392463 50.0797917,61.0045675 47.9157536,63.1949049 C47.4533539,63.6628519 46.7313006,63.7604687 46.160101,63.432714 L44.3078017,62.3696688 C44.2616968,62.3432029 44.2024742,62.358929 44.1760458,62.4047648 L41.0893304,67.7196075 C41.0843148,67.7282377 41.0694609,67.7539364 41.079685,67.7922927 C41.0899091,67.830649 41.1161446,67.845608 41.1246325,67.8505943 L42.9838765,68.917667 C43.5550761,69.2454217 43.830934,69.9156983 43.6548093,70.5474268 C43.2325345,72.0625012 43.018407,73.5885072 43.018407,75.0826774 C43.018407,76.5768477 43.2325345,78.1028536 43.6548093,79.6179281 C43.830934,80.2496566 43.5548832,80.9199332 42.9838765,81.2476879 L41.1246325,82.3147605 C41.1159517,82.3197468 41.0901021,82.3347058 41.079685,82.3730621 C41.069268,82.4112267 41.0843148,82.437309 41.0893304,82.4457473 L44.1758529,87.7605901 C44.2026671,87.8064259 44.2615039,87.8221519 44.3078017,87.7956861 L46.1599081,86.7326408 C46.385803,86.6029965 46.6352326,86.5399004 46.882926,86.5399004 C47.2616037,86.5399004 47.6360375,86.6875722 47.9155607,86.97045 C50.0794058,89.1605955 52.8136789,90.7261085 55.8222667,91.497454 C56.4611769,91.6612355 56.9077581,92.234087 56.9077581,92.8901718 L56.9077581,95.0277692 C56.9077581,95.0807009 56.9509694,95.12366 57.0042119,95.12366 L63.1772569,95.12366 C63.2304994,95.12366 63.2737107,95.0807009 63.2737107,95.0277692 L63.2737107,92.8897882 C63.2737107,92.2337035 63.7202919,91.6608519 64.3592021,91.4970704 C67.3677899,90.725725 70.10187,89.1604038 72.2659081,86.9700664 C72.7281148,86.5019276 73.4501682,86.404119 74.0215607,86.7322573 L75.87386,87.7953025 C75.9201578,87.8219602 75.9789946,87.8060423 76.0056159,87.7602065 L79.0921384,82.4453638 C79.097154,82.4369254 79.1120079,82.4110349 79.1017838,82.3726786 C79.0913667,82.334514 79.0653242,82.3193633 79.0568363,82.3145687 L77.1975923,81.2474961 C76.6263927,80.9197414 76.3505348,80.2494648 76.5266595,79.6177363 C76.9489343,78.1026618 77.1630618,76.5766559 77.1630618,75.0824856 C77.1630618,73.5883154 76.9489343,72.0623094 76.5266595,70.547235 Z M10.7063748,27.4247649 C9.90735132,27.4247649 9.25956742,26.7807624 9.25956742,25.9864031 C9.25956742,25.1920438 9.90735132,24.5480413 10.7063748,24.5480413 L13.7928973,24.5480413 C14.5919208,24.5480413 15.2397047,25.1920438 15.2397047,25.9864031 C15.2397047,26.7807624 14.5919208,27.4247649 13.7928973,27.4247649 L10.7063748,27.4247649 Z M19.9659422,27.4247649 C19.1669187,27.4247649 18.5191348,26.7807624 18.5191348,25.9864031 C18.5191348,25.1920438 19.1669187,24.5480413 19.9659422,24.5480413 L23.0524647,24.5480413 C23.8514882,24.5480413 24.4992721,25.1920438 24.4992721,25.9864031 C24.4992721,26.7807624 23.8514882,27.4247649 23.0524647,27.4247649 L19.9659422,27.4247649 Z M44.658122,24.5480413 C45.4571455,24.5480413 46.1049294,25.1920438 46.1049294,25.9864031 C46.1049294,26.7807624 45.4571455,27.4247649 44.658122,27.4247649 L29.2255097,27.4247649 C28.4264862,27.4247649 27.7787023,26.7807624 27.7787023,25.9864031 C27.7787023,25.1920438 28.4264862,24.5480413 29.2255097,24.5480413 L44.658122,24.5480413 Z M33.7588395,33.657666 C33.7588395,34.4520253 33.1110556,35.0960278 32.3120321,35.0960278 L19.9659422,35.0960278 C19.1669187,35.0960278 18.5191348,34.4520253 18.5191348,33.657666 C18.5191348,32.8633067 19.1669187,32.2193042 19.9659422,32.2193042 L32.3120321,32.2193042 C33.1110556,32.2193042 33.7588395,32.8633067 33.7588395,33.657666 Z M37.0382697,33.657666 C37.0382697,32.8633067 37.6860536,32.2193042 38.4850771,32.2193042 L49.2879057,32.2193042 C50.0869292,32.2193042 50.7347132,32.8633067 50.7347132,33.657666 C50.7347132,34.4520253 50.0869292,35.0960278 49.2879057,35.0960278 L38.4850771,35.0960278 C37.6860536,35.0960278 37.0382697,34.4520253 37.0382697,33.657666 Z M10.7063748,35.0960278 C9.90735132,35.0960278 9.25956742,34.4520253 9.25956742,33.657666 C9.25956742,32.8633067 9.90735132,32.2193042 10.7063748,32.2193042 L13.7928973,32.2193042 C14.5919208,32.2193042 15.2397047,32.8633067 15.2397047,33.657666 C15.2397047,34.4520253 14.5919208,35.0960278 13.7928973,35.0960278 L10.7063748,35.0960278 Z M10.7063748,42.7672907 C9.90735132,42.7672907 9.25956742,42.1232882 9.25956742,41.3289289 C9.25956742,40.5345696 9.90735132,39.8905671 10.7063748,39.8905671 L13.7928973,39.8905671 C14.5919208,39.8905671 15.2397047,40.5345696 15.2397047,41.3289289 C15.2397047,42.1232882 14.5919208,42.7672907 13.7928973,42.7672907 L10.7063748,42.7672907 Z M30.7687709,42.7672907 C29.9697474,42.7672907 29.3219635,42.1232882 29.3219635,41.3289289 C29.3219635,40.5345696 29.9697474,39.8905671 30.7687709,39.8905671 L57.0042119,39.8905671 C57.8032354,39.8905671 58.4510193,40.5345696 58.4510193,41.3289289 C58.4510193,42.1232882 57.8032354,42.7672907 57.0042119,42.7672907 L30.7687709,42.7672907 Z M19.9659422,39.8905671 L24.595726,39.8905671 C25.3947495,39.8905671 26.0425334,40.5345696 26.0425334,41.3289289 C26.0425334,42.1232882 25.3947495,42.7672907 24.595726,42.7672907 L19.9659422,42.7672907 C19.1669187,42.7672907 18.5191348,42.1232882 18.5191348,41.3289289 C18.5191348,40.5345696 19.1669187,39.8905671 19.9659422,39.8905671 Z M36.9418159,47.56183 C37.7408394,47.56183 38.3886233,48.2058325 38.3886233,49.0001918 C38.3886233,49.7945511 37.7408394,50.4385536 36.9418159,50.4385536 L19.9659422,50.4385536 C19.1669187,50.4385536 18.5191348,49.7945511 18.5191348,49.0001918 C18.5191348,48.2058325 19.1669187,47.56183 19.9659422,47.56183 L36.9418159,47.56183 Z M18.422681,62.7125742 C17.6236575,62.7125742 16.9758736,62.0685717 16.9758736,61.2742124 C16.9758736,60.4798532 17.6236575,59.8358506 18.422681,59.8358506 L24.595726,59.8358506 C25.3947495,59.8358506 26.0425334,60.4798532 26.0425334,61.2742124 C26.0425334,62.0685717 25.3947495,62.7125742 24.595726,62.7125742 L18.422681,62.7125742 Z M10.7063748,50.4385536 C9.90735132,50.4385536 9.25956742,49.7945511 9.25956742,49.0001918 C9.25956742,48.2058325 9.90735132,47.56183 10.7063748,47.56183 L13.7928973,47.56183 C14.5919208,47.56183 15.2397047,48.2058325 15.2397047,49.0001918 C15.2397047,49.7945511 14.5919208,50.4385536 13.7928973,50.4385536 L10.7063748,50.4385536 Z M9.68338554,62.2912301 C9.11835902,61.7296937 9.11835902,60.8187312 9.68338554,60.2571947 L11.7469187,58.2057073 L9.68338554,56.1542198 C9.11835902,55.5926833 9.11835902,54.6819126 9.68338554,54.1201844 C10.2482191,53.5584562 11.1643376,53.5584562 11.7293641,54.1201844 L14.8158866,57.1886896 C15.3809131,57.750226 15.3809131,58.6609967 14.8158866,59.2227249 L11.7293641,62.2912301 C11.4469473,62.5721901 11.0765646,62.7125742 10.7063748,62.7125742 C10.336185,62.7125742 9.96580234,62.5719983 9.68338554,62.2912301 Z" id="Combined-Shape"></path>
        </g>
    </g>
</svg>