<?xml version="1.0" encoding="UTF-8"?>
<svg width="140px" height="140px" viewBox="0 0 140 140" version="1.1" xmlns="http://www.w3.org/2000/svg" xmlns:xlink="http://www.w3.org/1999/xlink">
    <!-- Generator: Sketch 50.2 (55047) - http://www.bohemiancoding.com/sketch -->
    <title>Icons/Goods/icon 4</title>
    <desc>Created with Sketch.</desc>
    <defs></defs>
    <g id="Icons/Goods/icon-4" stroke="none" stroke-width="1" fill="none" fill-rule="evenodd">
        <g id="data" transform="translate(25.000000, 24.000000)" fill="#D2252B" fill-rule="nonzero">
            <path d="M68.6443223,0 C72.8545074,0.0049833515 76.2665116,3.43467919 76.2714692,7.66669462 L76.2714692,9.20003354 L73.2206105,9.20003354 L73.2206105,7.66669462 C73.2206105,5.12614369 71.1717681,3.06667785 68.6443223,3.06667785 L7.62714692,3.06667785 C5.09970111,3.06667785 3.05085877,5.12614369 3.05085877,7.66669462 L3.05085877,56.7335402 C3.05009605,58.8322978 4.46283434,60.6654045 6.48460031,61.1894231 L5.72188562,64.1579672 C2.35335618,63.2843474 -0.000381357346,60.2305113 0,56.7335402 L0,7.66669462 C0.0049576455,3.43467919 3.41696182,0.0049833515 7.62714692,0 L68.6443223,0 Z M6.10171754,6.13335569 L9.15257631,6.13335569 L9.15257631,9.20003354 L6.10171754,9.20003354 L6.10171754,6.13335569 Z M12.2034351,6.13335569 L15.2542938,6.13335569 L15.2542938,9.20003354 L12.2034351,9.20003354 L12.2034351,6.13335569 Z M18.3051526,6.13335569 L21.3560114,6.13335569 L21.3560114,9.20003354 L18.3051526,9.20003354 L18.3051526,6.13335569 Z M89.5533829,84.7829091 C90.1488724,85.381678 90.1488724,86.3522815 89.5533829,86.9510503 L84.9770947,91.5510671 C84.3814145,92.1496443 83.4158177,92.1496443 82.8201376,91.5510671 L68.6961869,77.353882 C66.8002689,78.6970869 64.6989899,79.7202073 62.4752952,80.3829931 C51.1907406,83.7459887 39.3305272,77.2768317 35.9848792,65.9335737 L15.2542938,65.9335737 L15.2542938,62.8668959 L35.3289445,62.8668959 C34.7544297,59.1552573 35.1973763,55.3564102 36.6103052,51.8789891 L36.6103052,35.2667952 L39.661164,35.2667952 L39.661164,46.5644364 C40.5670784,45.4012072 41.5893067,44.3345783 42.7120228,43.3812248 L42.7120228,32.2001174 L45.7628815,32.2001174 L45.7628815,41.237617 C46.7395377,40.6687483 47.7596686,40.1790382 48.8137403,39.7732783 L48.8137403,33.7334563 L51.8645991,33.7334563 L51.8645991,38.8425416 C52.869857,38.6244242 53.8894159,38.480482 54.9154578,38.4116734 L54.9154578,27.6001006 L57.9663166,27.6001006 L57.9663166,38.4116734 C58.9923586,38.480482 60.0119174,38.6244242 61.0171754,38.8425416 L61.0171754,24.5334228 L64.0680342,24.5334228 L64.0680342,39.7732783 C65.1221059,40.1790382 66.1424274,40.6687483 67.1188929,41.237617 L67.1188929,30.6667785 L70.1697517,30.6667785 L70.1697517,43.3812248 C71.2924677,44.3345783 72.3146961,45.4012072 73.2206105,46.5644364 L73.2206105,36.8001342 L76.2714692,36.8001342 L76.2714692,51.8789891 C77.6843982,55.3564102 78.1273448,59.1552573 77.5528299,62.8668959 L79.322328,62.8668959 L79.322328,65.9335737 L76.8968953,65.9335737 C76.452614,67.4314542 75.8447304,68.8754761 75.0846852,70.2391894 L89.5533829,84.7829091 Z M56.4408872,78.2002851 C66.5504798,78.2002851 74.7460398,69.9622301 74.7460398,59.800218 C74.7460398,49.638206 66.5504798,41.4001509 56.4408872,41.4001509 C46.3312947,41.4001509 38.1357346,49.638206 38.1357346,59.800218 C38.1466033,69.9578217 46.3356803,78.1893601 56.4408872,78.2002851 Z M83.8986161,88.2988553 L86.3179472,85.8669797 L73.3624754,72.8443322 C72.6657355,73.7560939 71.8980632,74.6107387 71.0667042,75.4004082 L83.8986161,88.2988553 Z M56.4408872,44.4668288 C64.8618295,44.4760288 71.6860285,51.3356122 71.6951811,59.800218 C71.6951811,68.2686572 64.865643,75.1336073 56.4408872,75.1336073 C48.0161314,75.1336073 41.1865934,68.2686572 41.1865934,59.800218 C41.1865934,51.3317788 48.0161314,44.4668288 56.4408872,44.4668288 Z M56.4408872,72.0669294 C60.7952254,72.0613711 64.8166386,69.7239875 66.9938077,65.9335737 L45.8879667,65.9335737 C48.0651358,69.7239875 52.086549,72.0613711 56.4408872,72.0669294 Z M44.6386401,62.8668959 L68.2431344,62.8668959 C69.470533,58.1978788 67.8316498,53.2413608 64.0680342,50.2398498 L64.0680342,59.800218 L61.0171754,59.800218 L61.0171754,48.4366433 C60.0389938,48.0387418 59.0133332,47.7707908 57.9663166,47.639307 L57.9663166,59.800218 L54.9154578,59.800218 L54.9154578,47.639307 C53.8684412,47.7707908 52.8427807,48.0387418 51.8645991,48.4366433 L51.8645991,59.800218 L48.8137403,59.800218 L48.8137403,50.2398498 C45.0501247,53.2413608 43.4112415,58.1978788 44.6386401,62.8668959 Z M77.7968986,12.2667114 C82.0070837,12.2716947 85.4190879,15.7013906 85.4240455,19.933406 L85.4240455,69.0002516 C85.4248082,70.8676667 84.7467549,72.6710649 83.5172588,74.0710034 L81.2291147,72.042396 C81.9662785,71.2021263 82.3729961,70.1205473 82.3731868,69.0002516 L82.3731868,19.933406 C82.3731868,17.3928551 80.3243444,15.3333892 77.7968986,15.3333892 L16.7797232,15.3333892 C14.2522774,15.3333892 12.2034351,17.3928551 12.2034351,19.933406 L12.2034351,69.0002516 C12.2034351,71.5408025 14.2522774,73.6002683 16.7797232,73.6002683 L36.6103052,73.6002683 L36.6103052,76.6669462 L16.7797232,76.6669462 C12.5695381,76.6619628 9.15753395,73.232267 9.15257631,69.0002516 L9.15257631,19.933406 C9.15753395,15.7013906 12.5695381,12.2716947 16.7797232,12.2667114 L77.7968986,12.2667114 Z M15.2542938,18.4000671 L18.3051526,18.4000671 L18.3051526,21.4667449 L15.2542938,21.4667449 L15.2542938,18.4000671 Z M21.3560114,18.4000671 L24.4068702,18.4000671 L24.4068702,21.4667449 L21.3560114,21.4667449 L21.3560114,18.4000671 Z M27.4577289,18.4000671 L30.5085877,18.4000671 L30.5085877,21.4667449 L27.4577289,21.4667449 L27.4577289,18.4000671 Z M18.3051526,50.6001845 L21.3560114,50.6001845 L21.3560114,59.800218 L18.3051526,59.800218 L18.3051526,50.6001845 Z M24.4068702,41.4001509 L27.4577289,41.4001509 L27.4577289,59.800218 L24.4068702,59.800218 L24.4068702,41.4001509 Z M30.5085877,46.0001677 L33.5594465,46.0001677 L33.5594465,59.800218 L30.5085877,59.800218 L30.5085877,46.0001677 Z" id="Combined-Shape"></path>
        </g>
    </g>
</svg>