<?xml version="1.0" encoding="UTF-8"?>
<svg width="140px" height="140px" viewBox="0 0 140 140" version="1.1" xmlns="http://www.w3.org/2000/svg" xmlns:xlink="http://www.w3.org/1999/xlink">
    <!-- Generator: Sketch 50.2 (55047) - http://www.bohemiancoding.com/sketch -->
    <title>Icons/Goods/icon 3</title>
    <desc>Created with Sketch.</desc>
    <defs></defs>
    <g id="Icons/Goods/icon-3" stroke="none" stroke-width="1" fill="none" fill-rule="evenodd">
        <g id="human-resources" transform="translate(24.000000, 24.000000)" fill="#D2252B" fill-rule="nonzero">
            <path d="M67.9784167,19.7786583 C66.8830417,17.587525 64.9970417,15.8933833 62.7010667,15.0389333 L52.7344,10.856 C52.5442667,10.7753083 52.33995,10.733525 52.1333333,10.7333333 L50.6,10.7333333 L50.6,0 L47.5333333,0 L47.5333333,4.6 L44.4666667,4.6 L44.4666667,0 L41.4,0 L41.4,10.7333333 L39.8666667,10.7333333 C39.66005,10.733525 39.4557333,10.7753083 39.2656,10.856 L29.3679333,15.0113333 C24.3470333,16.8375333 21.7570417,22.3880083 23.5832417,27.4089083 C24.4292583,29.7347833 26.1345167,31.6481917 28.3482667,32.7550667 L38.3333333,37.7476 L38.3333333,38.3333333 C38.3388917,39.9977666 38.89185,41.6140916 39.9065333,42.9333333 L39.8666667,42.9333333 C35.6346667,42.9383166 32.2049833,46.368 32.2,50.6 L32.2,65.9333333 C32.2,66.7801166 32.88655,67.4666666 33.7333333,67.4666666 L38.3333333,67.4666666 L38.3333333,79.2733333 L35.5242667,83.4869333 C35.0567917,84.1930333 35.250375,85.1444666 35.956475,85.6119416 C36.2066,85.7775416 36.5000417,85.8660916 36.8,85.8666666 L55.2,85.8666666 C56.0467833,85.8668583 56.733525,85.1803083 56.733525,84.333525 C56.733525,84.0305 56.643825,83.734375 56.4757333,83.4823333 L53.6666667,79.2733333 L53.6666667,67.4666666 L58.2666667,67.4666666 C59.11345,67.4666666 59.8,66.7801166 59.8,65.9333333 L59.8,50.6 C59.8,46.3658916 56.3674417,42.9333333 52.1333333,42.9333333 L52.0934667,42.9333333 C53.10815,41.6140916 53.6611083,39.9977666 53.6666667,38.3333333 L53.6666667,37.7476 L63.6517333,32.7550667 C68.4297917,30.3665167 70.3669667,24.5567167 67.9784167,19.7786583 Z M44.4666667,7.66666666 L47.5333333,7.66666666 L47.5333333,10.7333333 L44.4666667,10.7333333 L44.4666667,7.66666666 Z M41.4,13.8 L50.6,13.8 L50.6,18.4 C50.6,20.9405417 48.5405417,23 46,23 C43.4594583,23 41.4,20.9405417 41.4,18.4 L41.4,13.8 Z M38.3333333,34.3190667 L29.7190667,30.0119333 C27.4748417,28.8991167 26.058425,26.6073583 26.0666667,24.1024667 C26.0800833,21.300875 27.8459083,18.8074833 30.4842,17.8648667 L38.3333333,14.5666667 L38.3333333,18.4 C38.3457917,18.6648833 38.3724333,18.929 38.4130667,19.1912 L31.8672667,21.0618667 C30.2520917,21.5289583 29.1387,23.0053667 29.1333333,24.6866667 C29.1268167,26.1163083 29.9346917,27.4250083 31.2156,28.06 L38.3333333,31.6142667 L38.3333333,34.3190667 Z M38.3333333,64.4 L35.2666667,64.4 L35.2666667,61.3333333 L38.3333333,61.3333333 L38.3333333,64.4 Z M47.5333333,82.8 L47.5333333,67.4666666 L44.4666667,67.4666666 L44.4666667,82.8 L39.6658,82.8 L41.1424,80.5843333 C41.3099167,80.3321 41.399425,80.0361666 41.4,79.7333333 L41.4,64.4 L50.6,64.4 L50.6,79.7333333 C50.600575,80.0361666 50.6900833,80.3321 50.8576,80.5843333 L52.3342,82.8 L47.5333333,82.8 Z M56.7333333,64.4 L53.6666667,64.4 L53.6666667,61.3333333 L56.7333333,61.3333333 L56.7333333,64.4 Z M52.1333333,46 C54.673875,46 56.7333333,48.0594583 56.7333333,50.6 L56.7333333,58.2666666 L53.6666667,58.2666666 L53.6666667,50.6 C53.6666667,49.7532166 52.9801167,49.0666666 52.1333333,49.0666666 C51.28655,49.0666666 50.6,49.7532166 50.6,50.6 L50.6,61.3333333 L41.4,61.3333333 L41.4,50.6 C41.4,49.7532166 40.71345,49.0666666 39.8666667,49.0666666 C39.0198833,49.0666666 38.3333333,49.7532166 38.3333333,50.6 L38.3333333,58.2666666 L35.2666667,58.2666666 L35.2666667,50.6 C35.2666667,48.0594583 37.326125,46 39.8666667,46 L44.4666667,46 L44.4666667,58.2666666 L47.5333333,58.2666666 L47.5333333,46 L52.1333333,46 Z M41.4,38.3333333 L41.4,35.2666667 C41.4,32.726125 43.4594583,30.6666667 46,30.6666667 C48.5405417,30.6666667 50.6,32.726125 50.6,35.2666667 L50.6,38.3333333 C50.6,40.873875 48.5405417,42.9333333 46,42.9333333 C43.4594583,42.9333333 41.4,40.873875 41.4,38.3333333 Z M51.4479333,29.2943333 C51.3103167,29.3648667 51.1842,29.4559083 51.0738,29.5642 C48.198225,26.945075 43.801775,26.945075 40.9262,29.5642 C40.8158,29.4559083 40.6896833,29.3648667 40.5520667,29.2943333 L32.5864,25.3076667 C32.2404417,25.1340167 32.1009083,24.712925 32.2745583,24.3669667 C32.362725,24.1915917 32.520275,24.0610667 32.7090667,24.0074 L39.3376667,22.1137333 C41.351125,25.7931583 45.9662667,27.1438333 49.6456917,25.130375 C50.9187417,24.4336667 51.965625,23.3867833 52.6623333,22.1137333 L59.2909333,24.0074 C59.6629583,24.113775 59.8783917,24.5017083 59.7720167,24.8737333 C59.7181583,25.0623333 59.5874417,25.2196917 59.4120667,25.3076667 L51.4479333,29.2943333 Z M62.2809333,30.0119333 L53.6666667,34.3190667 L53.6666667,31.6142667 L60.7828667,28.06 C62.0647333,27.425775 62.8731833,26.1168833 62.8666667,24.6866667 C62.8614917,23.00575 61.748675,21.5295333 60.1342667,21.0618667 L53.5869333,19.1912 C53.6275667,18.929 53.6542083,18.6648833 53.6666667,18.4 L53.6666667,14.5666667 L61.5848,17.8878667 C64.1937667,18.8431333 65.9298833,21.3242583 65.9333333,24.1024667 C65.941575,26.6073583 64.5251583,28.8991167 62.2809333,30.0119333 Z M19.9333333,49.0666666 C24.1674417,49.0666666 27.6,52.499225 27.6,56.7333333 L27.6,72.0666666 C27.6,72.91345 26.91345,73.6 26.0666667,73.6 L21.4666667,73.6 L21.4666667,85.4066666 L24.2757333,89.6156666 C24.443825,89.8677083 24.533525,90.1638333 24.533525,90.4668583 C24.533525,91.3136416 23.8467833,92.0001916 23,92 L4.6,92 C4.296975,92 4.00085,91.9103 3.74880833,91.7422083 C3.04424167,91.2722416 2.8543,90.3200416 3.32426667,89.6156666 L6.13333333,85.4066666 L6.13333333,73.6 L1.53333333,73.6 C0.68655,73.6 0,72.91345 0,72.0666666 L0,56.7333333 C0.00498333333,52.5013333 3.43466667,49.07165 7.66666667,49.0666666 L7.70653333,49.0666666 C6.69185,47.747425 6.13889167,46.1311 6.13333333,44.4666666 L6.13333333,41.4 C6.13333333,37.1658917 9.56589167,33.7333333 13.8,33.7333333 C18.0341083,33.7333333 21.4666667,37.1658917 21.4666667,41.4 L21.4666667,44.4666666 C21.4611083,46.1311 20.90815,47.747425 19.8934667,49.0666666 L19.9333333,49.0666666 Z M9.2,41.4 L9.2,44.4666666 C9.2,47.0072083 11.2594583,49.0666666 13.8,49.0666666 C16.3405417,49.0666666 18.4,47.0072083 18.4,44.4666666 L18.4,41.4 C18.4,38.8594583 16.3405417,36.8 13.8,36.8 C11.2594583,36.8 9.2,38.8594583 9.2,41.4 Z M6.13333333,70.5333333 L6.13333333,67.4666666 L3.06666667,67.4666666 L3.06666667,70.5333333 L6.13333333,70.5333333 Z M15.3333333,88.9333333 L20.1342,88.9333333 L18.6576,86.7176666 C18.4900833,86.4654333 18.400575,86.1695 18.4,85.8666666 L18.4,70.5333333 L9.2,70.5333333 L9.2,85.8666666 C9.199425,86.1695 9.10991667,86.4654333 8.9424,86.7176666 L7.4658,88.9333333 L12.2666667,88.9333333 L12.2666667,73.6 L15.3333333,73.6 L15.3333333,88.9333333 Z M24.5333333,70.5333333 L24.5333333,67.4666666 L21.4666667,67.4666666 L21.4666667,70.5333333 L24.5333333,70.5333333 Z M24.5333333,64.4 L24.5333333,56.7333333 C24.5333333,54.1927916 22.473875,52.1333333 19.9333333,52.1333333 L15.3333333,52.1333333 L15.3333333,64.4 L12.2666667,64.4 L12.2666667,52.1333333 L7.66666667,52.1333333 C5.126125,52.1333333 3.06666667,54.1927916 3.06666667,56.7333333 L3.06666667,64.4 L6.13333333,64.4 L6.13333333,56.7333333 C6.13333333,55.88655 6.81988333,55.2 7.66666667,55.2 C8.51345,55.2 9.2,55.88655 9.2,56.7333333 L9.2,67.4666666 L18.4,67.4666666 L18.4,56.7333333 C18.4,55.88655 19.08655,55.2 19.9333333,55.2 C20.7801167,55.2 21.4666667,55.88655 21.4666667,56.7333333 L21.4666667,64.4 L24.5333333,64.4 Z M84.3333333,49.0666666 C88.5674417,49.0666666 92,52.499225 92,56.7333333 L92,72.0666666 C92,72.91345 91.31345,73.6 90.4666667,73.6 L85.8666667,73.6 L85.8666667,85.4066666 L88.6757333,89.6156666 C88.843825,89.8677083 88.933525,90.1638333 88.933525,90.4668583 C88.933525,91.3136416 88.2467833,92.0001916 87.4,92 L69,92 C68.696975,92 68.40085,91.9103 68.1488083,91.7422083 C67.4442417,91.2722416 67.2543,90.3200416 67.7242667,89.6156666 L70.5333333,85.4066666 L70.5333333,73.6 L65.9333333,73.6 C65.08655,73.6 64.4,72.91345 64.4,72.0666666 L64.4,56.7333333 C64.4049833,52.5013333 67.8346667,49.07165 72.0666667,49.0666666 L72.1065333,49.0666666 C71.09185,47.747425 70.5388917,46.1311 70.5333333,44.4666666 L70.5333333,41.4 C70.5333333,37.1658917 73.9658917,33.7333333 78.2,33.7333333 C82.4341083,33.7333333 85.8666667,37.1658917 85.8666667,41.4 L85.8666667,44.4666666 C85.8611083,46.1311 85.30815,47.747425 84.2934667,49.0666666 L84.3333333,49.0666666 Z M73.6,41.4 L73.6,44.4666666 C73.6,47.0072083 75.6594583,49.0666666 78.2,49.0666666 C80.7405417,49.0666666 82.8,47.0072083 82.8,44.4666666 L82.8,41.4 C82.8,38.8594583 80.7405417,36.8 78.2,36.8 C75.6594583,36.8 73.6,38.8594583 73.6,41.4 Z M70.5333333,70.5333333 L70.5333333,67.4666666 L67.4666667,67.4666666 L67.4666667,70.5333333 L70.5333333,70.5333333 Z M79.7333333,88.9333333 L84.5342,88.9333333 L83.0576,86.7176666 C82.8900833,86.4654333 82.800575,86.1695 82.8,85.8666666 L82.8,70.5333333 L73.6,70.5333333 L73.6,85.8666666 C73.599425,86.1695 73.5099167,86.4654333 73.3424,86.7176666 L71.8658,88.9333333 L76.6666667,88.9333333 L76.6666667,73.6 L79.7333333,73.6 L79.7333333,88.9333333 Z M88.9333333,70.5333333 L88.9333333,67.4666666 L85.8666667,67.4666666 L85.8666667,70.5333333 L88.9333333,70.5333333 Z M88.9333333,64.4 L88.9333333,56.7333333 C88.9333333,54.1927916 86.873875,52.1333333 84.3333333,52.1333333 L79.7333333,52.1333333 L79.7333333,64.4 L76.6666667,64.4 L76.6666667,52.1333333 L72.0666667,52.1333333 C69.526125,52.1333333 67.4666667,54.1927916 67.4666667,56.7333333 L67.4666667,64.4 L70.5333333,64.4 L70.5333333,56.7333333 C70.5333333,55.88655 71.2198833,55.2 72.0666667,55.2 C72.91345,55.2 73.6,55.88655 73.6,56.7333333 L73.6,67.4666666 L82.8,67.4666666 L82.8,56.7333333 C82.8,55.88655 83.48655,55.2 84.3333333,55.2 C85.1801167,55.2 85.8666667,55.88655 85.8666667,56.7333333 L85.8666667,64.4 L88.9333333,64.4 Z M44.4666667,16.8666667 L47.5333333,16.8666667 L47.5333333,19.9333333 L44.4666667,19.9333333 L44.4666667,16.8666667 Z M36.8,88.9333333 L55.2,88.9333333 L55.2,92 L36.8,92 L36.8,88.9333333 Z" id="Combined-Shape"></path>
        </g>
    </g>
</svg>