<?xml version="1.0" encoding="utf-8"?>
<!-- Generator: Adobe Illustrator 22.0.1, SVG Export Plug-In . SVG Version: 6.00 Build 0)  -->
<svg version="1.1" id="圖層_1" xmlns="http://www.w3.org/2000/svg" xmlns:xlink="http://www.w3.org/1999/xlink" x="0px" y="0px"
	 viewBox="0 0 143 35" style="enable-background:new 0 0 143 35;" xml:space="preserve">
<style type="text/css">
	.st0{filter:url(#Adobe_OpacityMaskFilter);}
	.st1{fill:#FFFFFF;}
	.st2{mask:url(#mask-2_1_);fill:url(#Fill-1_1_);}
	.st3{filter:url(#Adobe_OpacityMaskFilter_1_);}
	.st4{mask:url(#mask-5_1_);fill:url(#Fill-4_1_);}
</style>
<title>logo</title>
<desc>Created with Sketch.</desc>
<g id="AE">
	<g id="Logos_x2F_AE" transform="translate(-89.000000, -18.000000)">
		<g transform="translate(80.000000, 15.000000)">
			<g id="Group" transform="translate(9.000000, 3.000000)">
				<g id="Group-3" transform="translate(0.000000, 7.411083)">
					<g id="Clip-2">
					</g>
					<defs>
						<filter id="Adobe_OpacityMaskFilter" filterUnits="userSpaceOnUse" x="0" y="0" width="32.8" height="27.4">
							<feColorMatrix  type="matrix" values="1 0 0 0 0  0 1 0 0 0  0 0 1 0 0  0 0 0 1 0"/>
						</filter>
					</defs>
					<mask maskUnits="userSpaceOnUse" x="0" y="0" width="32.8" height="27.4" id="mask-2_1_">
						<g class="st0">
							<path id="path-1_1_" class="st1" d="M2.4,8c-4,6.7-2.5,12.9,0.7,15.9c1.9,1.8,5.6,3.5,9.9,3.5h0.1c3.1,0,6.5-0.9,9.9-3.3
								c7.8-5.5,9.8-13.5,9.8-13.5s-5.1,9.4-16.4,12.1c-8,1.9-14.4-2.2-13.5-10C3.9,4.9,11.1,0,11.1,0S6.4,1.3,2.4,8"/>
						</g>
					</mask>
					
						<linearGradient id="Fill-1_1_" gradientUnits="userSpaceOnUse" x1="-234.4884" y1="415.9015" x2="-233.64" y2="416.8753" gradientTransform="matrix(32.7664 0 0 -27.4028 7687.4624 11420.7295)">
						<stop  offset="0" style="stop-color:#F6931D"/>
						<stop  offset="1" style="stop-color:#ED1C23"/>
					</linearGradient>
					<path id="Fill-1" class="st2" d="M2.4,8c-4,6.7-2.5,12.9,0.7,15.9c1.9,1.8,5.6,3.5,9.9,3.5h0.1c3.1,0,6.5-0.9,9.9-3.3
						c7.8-5.5,9.8-13.5,9.8-13.5s-5.1,9.4-16.4,12.1c-8,1.9-14.4-2.2-13.5-10C3.9,4.9,11.1,0,11.1,0S6.4,1.3,2.4,8"/>
				</g>
				<g id="Group-6" transform="translate(8.032454, 0.054395)">
					<g id="Clip-5">
					</g>
					<defs>
						<filter id="Adobe_OpacityMaskFilter_1_" filterUnits="userSpaceOnUse" x="0.1" y="0.2" width="26.4" height="25.9">
							<feColorMatrix  type="matrix" values="1 0 0 0 0  0 1 0 0 0  0 0 1 0 0  0 0 0 1 0"/>
						</filter>
					</defs>
					<mask maskUnits="userSpaceOnUse" x="0.1" y="0.2" width="26.4" height="25.9" id="mask-5_1_">
						<g class="st3">
							<path id="path-4_1_" class="st1" d="M15,0.2C9.8,0.2,4,1.8,1.2,4.4c0,0,8.1-4,16-1.7c7.9,2.3,3.2,9.1,0,11.3
								c-0.4,0.3-0.8,0.6-1.2,0.9L7.3,6.6L0.1,26c0,0,12.4-0.3,21.5-9.1C31.1,7.9,24.6,2.7,21,1.2C19.4,0.5,17.3,0.2,15,0.2L15,0.2z
								 M8.4,13.4l4,3.9C11,18,9.1,18.8,6.2,19.7L8.4,13.4z"/>
						</g>
					</mask>
					
						<linearGradient id="Fill-4_1_" gradientUnits="userSpaceOnUse" x1="-241.1324" y1="422.179" x2="-240.0732" y2="423.2165" gradientTransform="matrix(26.409 0 0 -25.8795 6361.2271 10954.0039)">
						<stop  offset="0" style="stop-color:#F6931D"/>
						<stop  offset="1" style="stop-color:#ED1C23"/>
					</linearGradient>
					<path id="Fill-4" class="st4" d="M15,0.2C9.8,0.2,4,1.8,1.2,4.4c0,0,8.1-4,16-1.7c7.9,2.3,3.2,9.1,0,11.3
						c-0.4,0.3-0.8,0.6-1.2,0.9L7.3,6.6L0.1,26c0,0,12.4-0.3,21.5-9.1C31.1,7.9,24.6,2.7,21,1.2C19.4,0.5,17.3,0.2,15,0.2L15,0.2z
						 M8.4,13.4l4,3.9C11,18,9.1,18.8,6.2,19.7L8.4,13.4z"/>
				</g>
				<g id="Group-47" transform="translate(37.931034, 5.404713)">
					<path id="Fill-7" class="st1" d="M2.9,3.7h3.9L4.9-0.4L2.9,3.7z M5.6-2.9l5,10.8H8.8L7.1,4.4H2.6L1,7.9H0.1L5.2-2.9H5.6z"/>
					<polygon id="Fill-9" class="st1" points="11.7,-0.2 14.3,5.7 16.9,-0.2 19.5,5.7 21.7,-0.2 22.5,-0.2 19.2,8 18.6,8 16.4,2.7 
						14.1,8 13.6,8 10,-0.2 					"/>
					<path id="Fill-11" class="st1" d="M28.6,2.4c0-0.3-0.1-0.6-0.2-0.9C28.3,1.3,28.2,1,28,0.9c-0.2-0.2-0.4-0.3-0.7-0.5
						c-0.3-0.1-0.5-0.2-0.8-0.2c-0.2,0-0.5,0.1-0.7,0.2c-0.2,0.1-0.4,0.3-0.6,0.5C25,1,24.9,1.3,24.7,1.5c-0.1,0.3-0.2,0.6-0.2,0.9
						H28.6z M27,8.1c-0.6,0-1.1-0.1-1.6-0.3c-0.5-0.2-0.9-0.5-1.3-0.8c-0.4-0.4-0.6-0.8-0.9-1.3c-0.2-0.5-0.3-1-0.3-1.5
						c0-0.7,0.1-1.3,0.3-1.8c0.2-0.6,0.5-1,0.8-1.4c0.4-0.4,0.8-0.7,1.3-0.9c0.5-0.2,1-0.3,1.6-0.3c0.5,0,1,0.1,1.5,0.3
						c0.4,0.2,0.8,0.4,1.1,0.8c0.3,0.3,0.6,0.7,0.7,1.1c0.2,0.4,0.3,0.8,0.3,1.3h-6.1c0,0.5,0.1,1.1,0.2,1.5
						c0.1,0.5,0.3,0.9,0.6,1.2c0.3,0.3,0.6,0.6,0.9,0.8c0.4,0.2,0.7,0.3,1.2,0.3c0.4,0,0.7-0.1,1-0.2c0.3-0.1,0.6-0.3,0.9-0.4
						c0.3-0.2,0.5-0.4,0.7-0.6c0.2-0.2,0.3-0.5,0.4-0.7l0.5,0.2c-0.1,0.4-0.3,0.8-0.6,1.2c-0.3,0.4-0.6,0.7-0.9,1
						c-0.3,0.3-0.7,0.5-1.1,0.7C27.8,8,27.4,8.1,27,8.1z"/>
					<path id="Fill-13" class="st1" d="M34.9,7.5c0.2,0,0.4,0,0.6-0.1c0.2-0.1,0.3-0.2,0.5-0.3c0.1-0.1,0.2-0.2,0.3-0.4
						c0.1-0.1,0.1-0.3,0.1-0.4c0-0.2-0.1-0.5-0.2-0.7c-0.1-0.2-0.3-0.4-0.5-0.5c-0.2-0.1-0.4-0.3-0.7-0.4c-0.3-0.1-0.5-0.2-0.8-0.4
						C34,4.3,33.7,4.1,33.5,4c-0.3-0.1-0.5-0.3-0.7-0.5c-0.2-0.2-0.4-0.4-0.5-0.7c-0.1-0.3-0.2-0.6-0.2-0.9c0-0.3,0.1-0.6,0.2-0.9
						c0.1-0.3,0.3-0.5,0.6-0.7c0.2-0.2,0.5-0.4,0.9-0.5c0.3-0.1,0.7-0.2,1.1-0.2c0.3,0,0.5,0,0.8,0.1c0.2,0,0.5,0.1,0.7,0.2
						C36.6,0,36.8,0.2,37,0.4c0.2,0.2,0.5,0.5,0.7,0.8l-0.6,0.5c-0.3-0.5-0.7-0.9-1-1.1c-0.4-0.2-0.8-0.4-1.2-0.4
						c-0.2,0-0.4,0-0.6,0.1c-0.2,0.1-0.4,0.1-0.5,0.2c-0.1,0.1-0.2,0.2-0.3,0.3c-0.1,0.1-0.1,0.3-0.1,0.4c0,0.2,0.1,0.5,0.2,0.6
						c0.1,0.2,0.3,0.3,0.5,0.5c0.2,0.1,0.5,0.3,0.8,0.4c0.3,0.1,0.6,0.2,0.9,0.4c0.3,0.1,0.6,0.3,0.9,0.4c0.3,0.1,0.5,0.3,0.8,0.5
						c0.2,0.2,0.4,0.4,0.5,0.7C38,5,38.1,5.3,38.1,5.6c0,0.3-0.1,0.7-0.2,1c-0.1,0.3-0.3,0.6-0.6,0.8c-0.3,0.2-0.6,0.4-1,0.5
						c-0.4,0.1-0.8,0.2-1.4,0.2c-0.2,0-0.5,0-0.7-0.1c-0.2,0-0.5-0.1-0.8-0.2c-0.3-0.1-0.5-0.3-0.8-0.5c-0.3-0.2-0.5-0.5-0.7-0.8
						L32.6,6c0.2,0.3,0.4,0.5,0.6,0.7c0.2,0.2,0.4,0.4,0.6,0.5c0.2,0.1,0.4,0.2,0.6,0.3C34.5,7.5,34.7,7.5,34.9,7.5"/>
					<path id="Fill-15" class="st1" d="M44,7.5c0.3,0,0.6-0.1,0.9-0.2c0.3-0.2,0.5-0.4,0.7-0.7c0.2-0.3,0.3-0.6,0.5-1
						c0.1-0.4,0.2-0.8,0.2-1.2c0-0.6-0.1-1.1-0.2-1.7c-0.1-0.5-0.3-1-0.5-1.3c-0.2-0.4-0.5-0.7-0.9-0.9c-0.4-0.2-0.8-0.3-1.3-0.3
						c-0.3,0-0.5,0.1-0.8,0.2c-0.3,0.2-0.5,0.4-0.7,0.6c-0.2,0.3-0.4,0.6-0.5,1c-0.1,0.4-0.2,0.7-0.2,1.2c0,0.6,0.1,1.2,0.2,1.7
						c0.1,0.5,0.3,1,0.5,1.4c0.2,0.4,0.5,0.7,0.9,0.9C43.1,7.4,43.5,7.5,44,7.5 M43.7,8.1c-0.6,0-1.2-0.1-1.7-0.3
						c-0.5-0.2-1-0.5-1.4-0.9c-0.4-0.4-0.7-0.8-0.9-1.3c-0.2-0.5-0.3-1-0.3-1.6c0-0.6,0.1-1.2,0.3-1.7c0.2-0.5,0.5-1,0.9-1.4
						c0.4-0.4,0.8-0.7,1.4-0.9c0.5-0.2,1.1-0.3,1.7-0.3c0.6,0,1.2,0.1,1.7,0.3c0.5,0.2,1,0.5,1.4,0.9c0.4,0.4,0.7,0.8,0.9,1.3
						c0.2,0.5,0.3,1,0.3,1.6c0,0.6-0.1,1.2-0.3,1.7c-0.2,0.5-0.5,1-0.9,1.4c-0.4,0.4-0.8,0.7-1.4,1C44.8,8,44.3,8.1,43.7,8.1"/>
					<path id="Fill-17" class="st1" d="M49.5-0.2h1.6v1.5c0.2-0.2,0.4-0.4,0.7-0.6c0.3-0.2,0.5-0.4,0.8-0.5c0.3-0.2,0.6-0.3,0.8-0.4
						c0.3-0.1,0.5-0.1,0.8-0.1c0.2,0,0.5,0,0.7,0.1c0.2,0.1,0.5,0.2,0.7,0.4c0.2,0.2,0.4,0.3,0.5,0.5c0.2,0.2,0.3,0.4,0.3,0.7
						c0.1-0.2,0.3-0.5,0.6-0.7c0.2-0.2,0.5-0.4,0.8-0.5c0.3-0.2,0.6-0.3,0.9-0.4c0.3-0.1,0.6-0.1,0.9-0.1c0.3,0,0.6,0.1,0.9,0.2
						c0.3,0.1,0.5,0.3,0.7,0.6c0.2,0.2,0.4,0.5,0.5,0.8c0.1,0.3,0.2,0.6,0.2,1v5.7h-1.6V2.4c0-0.2,0-0.4-0.1-0.7
						c-0.1-0.2-0.2-0.4-0.3-0.5c-0.1-0.2-0.3-0.3-0.5-0.4c-0.2-0.1-0.4-0.1-0.6-0.1c-0.2,0-0.4,0-0.7,0.1c-0.2,0.1-0.5,0.1-0.7,0.2
						c-0.2,0.1-0.4,0.2-0.6,0.4c-0.2,0.1-0.3,0.3-0.4,0.4v6h-1.6V2.4c0-0.2,0-0.4-0.1-0.7c-0.1-0.2-0.2-0.4-0.3-0.5
						C54.3,1.1,54.2,1,54,0.9c-0.2-0.1-0.4-0.1-0.6-0.1c-0.2,0-0.4,0-0.6,0.1c-0.2,0.1-0.4,0.1-0.6,0.3c-0.2,0.1-0.4,0.2-0.6,0.4
						c-0.2,0.1-0.3,0.3-0.5,0.4v6h-1.6V-0.2z"/>
					<path id="Fill-19" class="st1" d="M69,2.4c0-0.3-0.1-0.6-0.2-0.9c-0.1-0.3-0.3-0.5-0.5-0.7c-0.2-0.2-0.4-0.3-0.7-0.5
						c-0.3-0.1-0.5-0.2-0.8-0.2c-0.2,0-0.5,0.1-0.7,0.2c-0.2,0.1-0.4,0.3-0.6,0.5c-0.2,0.2-0.3,0.4-0.4,0.7C65.1,1.8,65,2.1,65,2.4
						H69z M67.4,8.1c-0.6,0-1.1-0.1-1.6-0.3c-0.5-0.2-0.9-0.5-1.3-0.8c-0.4-0.4-0.6-0.8-0.9-1.3c-0.2-0.5-0.3-1-0.3-1.5
						c0-0.7,0.1-1.3,0.3-1.8c0.2-0.6,0.5-1,0.8-1.4c0.4-0.4,0.8-0.7,1.3-0.9c0.5-0.2,1-0.3,1.6-0.3c0.5,0,1,0.1,1.5,0.3
						c0.4,0.2,0.8,0.4,1.1,0.8c0.3,0.3,0.6,0.7,0.7,1.1C70.9,2.2,71,2.6,71,3.1H65c0,0.5,0.1,1.1,0.2,1.5c0.1,0.5,0.3,0.9,0.6,1.2
						c0.3,0.3,0.6,0.6,0.9,0.8c0.4,0.2,0.7,0.3,1.2,0.3c0.4,0,0.7-0.1,1-0.2c0.3-0.1,0.6-0.3,0.9-0.4c0.3-0.2,0.5-0.4,0.7-0.6
						c0.2-0.2,0.3-0.5,0.4-0.7l0.5,0.2c-0.1,0.4-0.3,0.8-0.6,1.2c-0.3,0.4-0.6,0.7-0.9,1c-0.3,0.3-0.7,0.5-1.1,0.7
						C68.2,8,67.8,8.1,67.4,8.1z"/>
					<polygon id="Fill-21" class="st1" points="8.7,14.9 8.7,15.6 3.1,15.6 3.1,19.3 6.9,19.3 6.9,20 3.1,20 3.1,24.8 8.7,24.8 
						8.7,25.4 1.4,25.4 1.4,14.9 					"/>
					<path id="Fill-23" class="st1" d="M10.3,17.3h1.6v1.5c0.5-0.6,1-1,1.5-1.2c0.5-0.3,1.1-0.4,1.6-0.4c0.3,0,0.6,0.1,0.8,0.2
						c0.2,0.1,0.5,0.3,0.7,0.5c0.2,0.2,0.3,0.5,0.4,0.8c0.1,0.3,0.2,0.6,0.2,1v5.8h-1.6v-5.6c0-0.5-0.1-0.9-0.4-1.2
						c-0.2-0.3-0.6-0.4-0.9-0.4c-0.2,0-0.4,0-0.5,0.1c-0.2,0.1-0.4,0.1-0.6,0.2c-0.2,0.1-0.4,0.2-0.6,0.4c-0.2,0.1-0.4,0.3-0.6,0.5
						v6h-1.6V17.3z"/>
					<path id="Fill-25" class="st1" d="M23.3,24.4c-0.2,0.4-0.5,0.7-0.9,0.9c-0.4,0.2-0.8,0.3-1.3,0.3c-0.3,0-0.5,0-0.7-0.1
						c-0.2-0.1-0.4-0.2-0.5-0.4c-0.1-0.2-0.2-0.4-0.3-0.6c-0.1-0.2-0.1-0.5-0.1-0.8V18h-1.4v-0.4c0.5,0,0.8-0.1,1.1-0.2
						c0.3-0.2,0.5-0.4,0.7-0.7c0.2-0.3,0.3-0.6,0.4-1c0.1-0.4,0.2-0.8,0.3-1.2h0.5v2.8H23V18h-1.8v5.7c0,0.2,0.1,0.5,0.3,0.6
						c0.2,0.2,0.4,0.3,0.6,0.3c0.2,0,0.4,0,0.5-0.1c0.1-0.1,0.3-0.2,0.4-0.3L23.3,24.4z"/>
					<path id="Fill-27" class="st1" d="M29.5,19.9c0-0.3-0.1-0.6-0.2-0.9c-0.1-0.3-0.3-0.5-0.5-0.7c-0.2-0.2-0.4-0.3-0.7-0.5
						c-0.3-0.1-0.5-0.2-0.8-0.2c-0.2,0-0.5,0.1-0.7,0.2c-0.2,0.1-0.4,0.3-0.6,0.5c-0.2,0.2-0.3,0.4-0.4,0.7
						c-0.1,0.3-0.2,0.6-0.2,0.9H29.5z M27.9,25.6c-0.6,0-1.1-0.1-1.6-0.3c-0.5-0.2-0.9-0.5-1.3-0.8s-0.6-0.8-0.9-1.3
						c-0.2-0.5-0.3-1-0.3-1.5c0-0.7,0.1-1.3,0.3-1.8c0.2-0.6,0.5-1,0.8-1.4c0.4-0.4,0.8-0.7,1.3-0.9c0.5-0.2,1-0.3,1.6-0.3
						c0.5,0,1,0.1,1.5,0.3c0.4,0.2,0.8,0.4,1.1,0.8c0.3,0.3,0.6,0.7,0.7,1.1c0.2,0.4,0.3,0.8,0.3,1.3h-6.1c0,0.5,0.1,1.1,0.2,1.5
						c0.1,0.5,0.3,0.9,0.6,1.2c0.3,0.3,0.6,0.6,0.9,0.8c0.4,0.2,0.7,0.3,1.2,0.3c0.4,0,0.7-0.1,1-0.2c0.3-0.1,0.6-0.3,0.9-0.4
						c0.3-0.2,0.5-0.4,0.7-0.6c0.2-0.2,0.3-0.5,0.4-0.7l0.5,0.2c-0.1,0.4-0.3,0.8-0.6,1.2c-0.3,0.4-0.6,0.7-0.9,1
						c-0.3,0.3-0.7,0.5-1.1,0.7C28.7,25.5,28.3,25.6,27.9,25.6z"/>
					<path id="Fill-29" class="st1" d="M33.3,17.3h1.6v1.5c0.2-0.2,0.3-0.4,0.5-0.7c0.2-0.2,0.4-0.4,0.6-0.5
						c0.2-0.2,0.4-0.3,0.6-0.4c0.2-0.1,0.4-0.1,0.6-0.1c0.2,0,0.3,0,0.5,0.1c0.2,0.1,0.3,0.1,0.4,0.2c0.1,0.1,0.2,0.2,0.3,0.3
						c0.1,0.1,0.1,0.2,0.1,0.4c0,0.3-0.1,0.5-0.2,0.6c-0.2,0.1-0.4,0.2-0.7,0.2c-0.2,0-0.3,0-0.4-0.1c-0.1,0-0.2-0.1-0.3-0.1
						c-0.1,0-0.2-0.1-0.3-0.1c-0.1,0-0.2-0.1-0.3-0.1c-0.2,0-0.4,0.1-0.6,0.4c-0.2,0.2-0.4,0.5-0.7,0.9v5.6h-1.6V17.3z"/>
					<path id="Fill-31" class="st1" d="M44,24.4c-0.2,0.4-0.5,0.7-0.9,0.9c-0.4,0.2-0.8,0.3-1.3,0.3c-0.3,0-0.5,0-0.7-0.1
						c-0.2-0.1-0.4-0.2-0.5-0.4c-0.1-0.2-0.2-0.4-0.3-0.6c-0.1-0.2-0.1-0.5-0.1-0.8V18h-1.4v-0.4c0.5,0,0.8-0.1,1.1-0.2
						c0.3-0.2,0.5-0.4,0.7-0.7c0.2-0.3,0.3-0.6,0.4-1c0.1-0.4,0.2-0.8,0.3-1.2h0.5v2.8h1.8V18h-1.8v5.7c0,0.2,0.1,0.5,0.3,0.6
						c0.2,0.2,0.4,0.3,0.6,0.3c0.2,0,0.4,0,0.5-0.1c0.1-0.1,0.3-0.2,0.4-0.3L44,24.4z"/>
					<path id="Fill-33" class="st1" d="M49.3,20.7c-0.4,0.1-0.7,0.2-1.1,0.4c-0.4,0.2-0.7,0.3-1.1,0.6c-0.3,0.2-0.6,0.4-0.8,0.7
						c-0.2,0.3-0.3,0.5-0.3,0.8c0,0.2,0,0.4,0.1,0.6c0.1,0.2,0.2,0.3,0.3,0.5c0.1,0.1,0.3,0.2,0.4,0.3c0.2,0.1,0.3,0.1,0.5,0.1
						c0.2,0,0.4,0,0.5-0.1s0.3-0.1,0.5-0.2c0.2-0.1,0.3-0.2,0.5-0.3c0.2-0.1,0.3-0.2,0.5-0.3V20.7z M51,25.4h-1.6v-1.1
						c-0.2,0.1-0.4,0.3-0.6,0.4c-0.2,0.2-0.4,0.3-0.6,0.4c-0.2,0.1-0.5,0.2-0.7,0.3c-0.3,0.1-0.6,0.1-0.9,0.1
						c-0.3,0-0.6-0.1-0.9-0.2c-0.3-0.1-0.5-0.2-0.7-0.4c-0.2-0.2-0.3-0.4-0.4-0.6c-0.1-0.3-0.1-0.5-0.1-0.8c0-0.4,0.1-0.7,0.2-0.9
						c0.1-0.3,0.3-0.5,0.6-0.8c0.2-0.2,0.5-0.4,0.8-0.6c0.3-0.2,0.7-0.3,1-0.5s0.7-0.3,1.1-0.4c0.4-0.1,0.8-0.2,1.1-0.3v-0.5
						c0-0.4,0-0.7-0.1-0.9c-0.1-0.3-0.2-0.5-0.3-0.6c-0.1-0.2-0.3-0.3-0.5-0.3c-0.2-0.1-0.4-0.1-0.7-0.1c-0.3,0-0.5,0-0.7,0.1
						c-0.2,0.1-0.3,0.2-0.4,0.3s-0.2,0.2-0.2,0.4c0,0.1-0.1,0.3-0.1,0.5c0,0.1,0,0.3,0,0.4c0,0.1-0.1,0.2-0.1,0.3
						c-0.1,0.1-0.1,0.2-0.2,0.2C45.9,20,45.8,20,45.6,20c-0.2,0-0.5-0.1-0.6-0.3c-0.2-0.2-0.2-0.4-0.2-0.7c0-0.3,0.1-0.5,0.3-0.8
						c0.2-0.2,0.4-0.4,0.7-0.6c0.3-0.2,0.6-0.3,1-0.4c0.4-0.1,0.8-0.1,1.3-0.1c0.5,0,1,0.1,1.4,0.2c0.4,0.1,0.7,0.2,0.9,0.4
						c0.2,0.2,0.4,0.4,0.5,0.7c0.1,0.3,0.2,0.6,0.2,0.9V25.4z"/>
					<path id="Fill-35" class="st1" d="M53.2,17.6l1.1-0.5h0.5v8.3h-1.6V17.6z M54,13.1c0.1,0,0.2,0,0.4,0.1c0.1,0,0.2,0.1,0.3,0.2
						c0.1,0.1,0.2,0.2,0.2,0.3c0.1,0.1,0.1,0.2,0.1,0.3c0,0.1,0,0.2-0.1,0.3c-0.1,0.1-0.1,0.2-0.2,0.3c-0.1,0.1-0.2,0.1-0.3,0.2
						c-0.1,0-0.2,0.1-0.4,0.1c-0.1,0-0.2,0-0.4-0.1c-0.1,0-0.2-0.1-0.3-0.2c-0.1-0.1-0.2-0.2-0.2-0.3c-0.1-0.1-0.1-0.2-0.1-0.3
						c0-0.1,0-0.2,0.1-0.3c0.1-0.1,0.1-0.2,0.2-0.3c0.1-0.1,0.2-0.1,0.3-0.2C53.8,13.2,53.9,13.1,54,13.1z"/>
					<path id="Fill-37" class="st1" d="M56.8,17.3h1.6v1.5c0.5-0.6,1-1,1.5-1.2c0.5-0.3,1.1-0.4,1.6-0.4c0.3,0,0.6,0.1,0.8,0.2
						c0.2,0.1,0.5,0.3,0.7,0.5c0.2,0.2,0.3,0.5,0.4,0.8c0.1,0.3,0.2,0.6,0.2,1v5.8H62v-5.6c0-0.5-0.1-0.9-0.4-1.2
						c-0.2-0.3-0.6-0.4-0.9-0.4c-0.2,0-0.4,0-0.5,0.1c-0.2,0.1-0.4,0.1-0.6,0.2c-0.2,0.1-0.4,0.2-0.6,0.4c-0.2,0.1-0.4,0.3-0.6,0.5
						v6h-1.6V17.3z"/>
					<path id="Fill-39" class="st1" d="M65.5,17.3h1.6v1.5c0.2-0.2,0.4-0.4,0.7-0.6c0.3-0.2,0.5-0.4,0.8-0.5
						c0.3-0.2,0.6-0.3,0.8-0.4c0.3-0.1,0.5-0.1,0.8-0.1c0.2,0,0.5,0,0.7,0.1c0.2,0.1,0.5,0.2,0.7,0.4c0.2,0.2,0.4,0.3,0.5,0.5
						c0.2,0.2,0.3,0.4,0.3,0.7c0.1-0.2,0.3-0.5,0.6-0.7c0.2-0.2,0.5-0.4,0.8-0.5c0.3-0.2,0.6-0.3,0.9-0.4c0.3-0.1,0.6-0.1,0.9-0.1
						c0.3,0,0.6,0.1,0.9,0.2c0.3,0.1,0.5,0.3,0.7,0.6c0.2,0.2,0.4,0.5,0.5,0.8c0.1,0.3,0.2,0.6,0.2,1v5.7h-1.6v-5.5
						c0-0.2,0-0.4-0.1-0.7c-0.1-0.2-0.2-0.4-0.3-0.5c-0.1-0.2-0.3-0.3-0.5-0.4c-0.2-0.1-0.4-0.1-0.6-0.1c-0.2,0-0.4,0-0.7,0.1
						s-0.5,0.1-0.7,0.2c-0.2,0.1-0.4,0.2-0.6,0.4c-0.2,0.1-0.3,0.3-0.4,0.4v6h-1.6v-5.5c0-0.2,0-0.4-0.1-0.7
						c-0.1-0.2-0.2-0.4-0.3-0.5c-0.1-0.2-0.3-0.3-0.5-0.4c-0.2-0.1-0.4-0.1-0.6-0.1c-0.2,0-0.4,0-0.6,0.1c-0.2,0.1-0.4,0.1-0.6,0.3
						c-0.2,0.1-0.4,0.2-0.6,0.4c-0.2,0.1-0.3,0.3-0.5,0.4v6h-1.6V17.3z"/>
					<path id="Fill-41" class="st1" d="M85,19.9c0-0.3-0.1-0.6-0.2-0.9c-0.1-0.3-0.3-0.5-0.5-0.7c-0.2-0.2-0.4-0.3-0.7-0.5
						c-0.3-0.1-0.5-0.2-0.8-0.2c-0.2,0-0.5,0.1-0.7,0.2c-0.2,0.1-0.4,0.3-0.6,0.5c-0.2,0.2-0.3,0.4-0.4,0.7
						c-0.1,0.3-0.2,0.6-0.2,0.9H85z M83.4,25.6c-0.6,0-1.1-0.1-1.6-0.3c-0.5-0.2-0.9-0.5-1.3-0.8c-0.4-0.4-0.6-0.8-0.9-1.3
						c-0.2-0.5-0.3-1-0.3-1.5c0-0.7,0.1-1.3,0.3-1.8c0.2-0.6,0.5-1,0.8-1.4c0.4-0.4,0.8-0.7,1.3-0.9c0.5-0.2,1-0.3,1.6-0.3
						c0.5,0,1,0.1,1.5,0.3c0.4,0.2,0.8,0.4,1.1,0.8c0.3,0.3,0.6,0.7,0.7,1.1c0.2,0.4,0.3,0.8,0.3,1.3h-6.1c0,0.5,0.1,1.1,0.2,1.5
						c0.1,0.5,0.3,0.9,0.6,1.2c0.3,0.3,0.6,0.6,0.9,0.8c0.4,0.2,0.7,0.3,1.2,0.3c0.4,0,0.7-0.1,1-0.2c0.3-0.1,0.6-0.3,0.9-0.4
						c0.3-0.2,0.5-0.4,0.7-0.6c0.2-0.2,0.3-0.5,0.4-0.7l0.5,0.2c-0.1,0.4-0.3,0.8-0.6,1.2c-0.3,0.4-0.6,0.7-0.9,1
						c-0.3,0.3-0.7,0.5-1.1,0.7C84.2,25.5,83.8,25.6,83.4,25.6z"/>
					<path id="Fill-43" class="st1" d="M88.7,17.3h1.6v1.5c0.5-0.6,1-1,1.5-1.2c0.5-0.3,1.1-0.4,1.6-0.4c0.3,0,0.6,0.1,0.8,0.2
						c0.2,0.1,0.5,0.3,0.7,0.5c0.2,0.2,0.3,0.5,0.4,0.8c0.1,0.3,0.2,0.6,0.2,1v5.8h-1.6v-5.6c0-0.5-0.1-0.9-0.4-1.2
						c-0.2-0.3-0.6-0.4-0.9-0.4c-0.2,0-0.4,0-0.5,0.1c-0.2,0.1-0.4,0.1-0.6,0.2c-0.2,0.1-0.4,0.2-0.6,0.4c-0.2,0.1-0.4,0.3-0.6,0.5
						v6h-1.6V17.3z"/>
					<path id="Fill-45" class="st1" d="M101.7,24.4c-0.2,0.4-0.5,0.7-0.9,0.9c-0.4,0.2-0.8,0.3-1.3,0.3c-0.3,0-0.5,0-0.7-0.1
						c-0.2-0.1-0.4-0.2-0.5-0.4c-0.1-0.2-0.2-0.4-0.3-0.6C98,24.3,98,24,98,23.7V18h-1.4v-0.4c0.5,0,0.8-0.1,1.1-0.2
						c0.3-0.2,0.5-0.4,0.7-0.7c0.2-0.3,0.3-0.6,0.4-1c0.1-0.4,0.2-0.8,0.3-1.2h0.5v2.8h1.8V18h-1.8v5.7c0,0.2,0.1,0.5,0.3,0.6
						c0.2,0.2,0.4,0.3,0.6,0.3c0.2,0,0.4,0,0.5-0.1c0.1-0.1,0.3-0.2,0.4-0.3L101.7,24.4z"/>
				</g>
			</g>
		</g>
	</g>
</g>
</svg>
